<svg width="749" height="685" viewBox="0 0 749 685" fill="none" xmlns="http://www.w3.org/2000/svg">
<path fill-rule="evenodd" clip-rule="evenodd" d="M288.291 434.791C286.142 436.633 279.183 442.876 272.837 448.607C266.595 454.441 261.375 459.967 261.375 460.888C261.375 461.912 264.445 470.099 268.13 479.105C271.916 488.112 275.396 495.992 276.112 496.606C276.727 497.323 285.016 500.393 294.637 503.566C304.257 506.738 312.752 509.297 313.57 509.297C314.389 509.399 321.348 502.849 328.922 494.764C331.118 492.419 333.28 490.118 335.27 487.999C340.143 482.812 343.986 478.72 344.785 477.775L346.832 475.421C336.495 450.142 332.811 442.466 331.992 442.159C331.173 441.852 323.088 439.294 314.082 436.53C305.076 433.767 296.479 431.516 294.944 431.516C293.306 431.516 290.543 432.846 288.291 434.791ZM292.692 439.805C291.566 440.317 290.748 441.75 290.85 442.773C290.952 443.899 291.771 445.025 292.59 445.332C293.409 445.639 295.353 445.844 296.888 445.844C298.526 445.844 300.573 445.332 301.596 444.616C302.722 443.797 303.336 442.364 303.131 441.238C302.927 439.601 301.903 439.089 298.73 438.987C296.479 438.782 293.716 439.191 292.692 439.805ZM312.035 450.552C309.988 449.119 309.988 449.016 311.933 446.97C313.366 445.332 315.105 444.82 318.79 444.82C322.679 444.82 324.009 445.23 324.521 446.56C324.93 447.788 324.316 449.016 322.679 450.245C321.348 451.268 318.79 452.087 317.152 452.087C315.515 451.984 313.161 451.37 312.035 450.552ZM282.253 448.812C280.513 450.654 280.513 451.063 281.844 452.496C282.765 453.417 285.119 454.134 287.473 454.134C289.929 454.134 292.078 453.52 292.795 452.496C293.511 451.677 294.023 450.142 293.818 449.119C293.613 447.788 292.487 447.277 288.905 447.072C285.323 446.867 283.788 447.277 282.253 448.812ZM302.005 454.952C303.029 454.031 304.564 453.008 305.383 452.701C306.202 452.394 307.123 452.087 307.43 452.087C307.737 451.984 309.477 452.394 311.216 453.008C313.059 453.52 314.594 454.748 314.594 455.566C314.594 456.385 313.57 457.818 312.24 458.637C311.012 459.455 308.555 460.172 306.918 460.172C305.28 460.274 303.029 459.455 302.005 458.432C300.368 456.692 300.368 456.488 302.005 454.952ZM272.223 456.18C271.098 456.692 270.279 458.125 270.381 459.148C270.484 460.377 271.712 461.605 273.349 462.116C274.987 462.628 277.545 462.73 279.183 462.423C280.82 462.014 282.662 460.991 283.277 459.967C284.095 458.739 284.095 457.92 282.867 456.59C281.946 455.669 279.797 454.952 277.75 455.055C275.805 455.055 273.247 455.566 272.223 456.18ZM330.355 462.014C329.741 462.423 328.615 464.163 328.001 465.801C327.284 467.541 326.977 469.895 327.284 471.123C327.591 472.453 328.717 473.477 329.638 473.477C330.662 473.579 331.992 472.965 332.709 472.248C333.425 471.532 334.244 469.383 334.551 467.643C334.858 465.596 334.551 463.652 333.834 462.73C333.118 461.809 332.299 461.093 331.992 461.195C331.685 461.195 330.969 461.605 330.355 462.014ZM278.262 487.805C276.829 486.065 275.703 484.018 275.703 483.199C275.703 482.176 276.727 481.664 278.773 481.664C280.923 481.664 282.56 482.585 284.402 484.734C285.835 486.372 286.961 488.521 286.961 489.34C286.961 490.363 285.937 490.875 283.891 490.875C281.741 490.875 280.104 489.954 278.262 487.805ZM314.798 492.922C314.696 490.875 315.208 488.316 316.231 486.986C317.152 485.655 318.585 484.734 319.404 484.939C320.325 485.144 321.348 486.167 321.758 487.293C322.167 488.419 321.962 490.977 321.348 492.922C320.427 495.788 319.711 496.504 317.664 496.504C315.515 496.504 315.105 495.992 314.798 492.922ZM290.85 465.289C290.748 464.266 291.566 462.833 292.692 462.321C293.716 461.707 296.581 461.195 298.935 461.195C301.391 461.195 303.541 461.605 303.848 462.219C304.155 462.73 304.155 464.163 303.848 465.289C303.541 466.517 301.903 467.745 299.959 468.359C297.707 469.076 295.762 469.076 293.818 468.359C292.283 467.745 290.952 466.517 290.85 465.289Z" fill="#1B1514"/>
<path fill-rule="evenodd" clip-rule="evenodd" d="M441.314 421.269C432.417 423.558 425.126 425.432 423.795 425.682C422.157 426.091 420.417 427.627 419.496 429.469C418.063 432.334 418.268 433.562 422.055 448.709C422.461 450.297 422.904 452.032 423.368 453.851C425.478 462.115 428.034 472.127 429.628 478.082C432.289 488.316 433.62 491.796 435.564 493.229C436.792 494.252 438.839 495.071 439.965 494.969C441.091 494.969 452.86 492.205 466.063 488.828C480.493 485.144 490.83 481.971 491.956 480.845C492.979 479.924 494.002 478.389 494.309 477.57C494.514 476.752 491.546 462.935 487.555 446.867C481.721 423.226 479.879 417.392 478.037 415.857C476.706 414.834 474.25 414.117 472.203 414.117C470.259 414.22 459.206 416.676 447.641 419.644C445.482 420.198 443.356 420.744 441.314 421.269ZM450.711 427.319C447.027 428.241 441.295 430.594 437.918 432.437C434.541 434.279 431.573 436.019 431.266 436.223C430.959 436.428 431.88 437.452 433.313 438.577C434.683 439.619 435.319 440.102 435.882 440.028C436.37 439.964 436.803 439.48 437.611 438.577C438.634 437.554 441.295 435.507 443.547 434.074C445.798 432.641 451.018 430.185 455.112 428.548C459.717 426.603 461.559 425.477 459.922 425.477C458.489 425.477 454.395 426.296 450.711 427.319ZM445.491 453.11C445.491 450.961 446.413 449.323 448.664 447.481C450.506 446.048 452.553 444.82 453.372 444.82C454.191 444.82 456.033 445.434 457.568 446.253C459.206 446.969 460.741 448.402 461.15 449.323C461.662 450.244 461.969 452.087 461.969 453.519C461.969 454.952 461.662 456.794 461.15 457.716C460.741 458.637 459.206 460.069 457.67 460.786C456.033 461.605 454.088 462.219 453.27 462.219C452.451 462.219 450.302 460.786 448.664 459.148C446.72 457.204 445.594 454.952 445.491 453.11ZM465.039 469.383C465.141 467.438 466.165 465.187 467.598 463.754C468.928 462.321 471.282 461.195 472.715 461.195C474.148 461.195 475.99 461.502 476.911 461.912C477.832 462.423 479.265 463.959 479.981 465.494C480.8 467.131 481.209 469.792 480.902 471.43C480.595 473.067 479.367 475.216 478.139 476.035C476.809 476.854 474.557 477.57 473.022 477.57C471.384 477.57 469.031 476.444 467.598 475.012C465.96 473.374 465.039 471.327 465.039 469.383Z" fill="#1B1514"/>
<path d="M148.797 268.584C167.116 253.642 185.948 238.188 190.758 234.197C195.568 230.205 199.866 227.033 200.48 227.238C201.095 227.442 203.039 233.89 204.779 241.77C206.621 249.548 208.156 256.713 208.156 257.531C208.156 258.555 206.007 259.783 202.323 261.011C199.048 262.034 191.986 265.207 186.664 267.868C181.342 270.529 173.052 275.339 168.242 278.614C163.432 281.787 155.347 287.723 150.332 291.816C145.317 295.91 139.995 300.516 138.562 301.948C136.004 304.609 135.799 304.712 121.369 304.609C113.386 304.609 106.734 304.2 106.631 303.688C106.529 303.177 108.473 301.232 110.93 299.288C113.488 297.343 130.477 283.527 148.797 268.584Z" fill="#1B1514"/>
<path d="M545.993 243.203C547.631 235.016 549.268 227.749 549.677 226.93C550.189 225.907 550.906 226.112 553.157 227.954C554.692 229.284 562.368 235.732 570.146 242.18C577.924 248.627 592.355 260.602 602.18 268.789C612.005 276.977 625.309 287.825 643.322 302.051L615.484 302.563L607.502 295.91C603.203 292.226 594.504 285.778 588.363 281.582C582.12 277.386 572.705 271.757 567.383 268.994C562.061 266.128 554.692 262.853 551.008 261.523C547.323 260.295 544.048 258.964 543.639 258.657C543.23 258.35 544.356 251.391 545.993 243.203Z" fill="#1B1514"/>
<path d="M338.235 283.424C336.905 282.401 335.574 280.968 335.267 280.354C335.063 279.638 335.37 279.023 335.984 279.023C336.598 279.023 339.566 280.252 347.855 284.652L344.273 284.959C342.022 285.164 339.77 284.55 338.235 283.424Z" fill="#1B1514"/>
<path d="M355.941 285.676C355.122 282.912 354.508 279.637 354.508 278.512C354.508 276.977 355.941 278.102 360.341 283.015C363.616 286.597 368.222 290.588 370.678 291.919C374.26 293.966 375.386 294.17 377.33 293.147C378.559 292.533 381.117 290.793 383.062 289.36C384.904 287.927 388.179 284.55 390.226 281.787C392.273 279.126 394.217 276.977 394.729 276.977C395.138 276.977 395.138 278.716 394.831 280.866C394.524 282.913 392.784 287.416 391.045 290.691C389.202 294.068 385.723 298.571 383.164 300.72C380.605 302.87 378.252 304.712 377.842 304.609C377.33 304.609 377.023 303.893 377.023 303.074C377.023 302.255 376.512 301.539 376 301.539C375.488 301.539 374.772 302.255 374.465 303.074C374.055 304.302 373.032 304.098 368.631 301.846C365.663 300.209 362.081 297.138 360.444 294.887C358.806 292.635 356.759 288.541 355.941 285.676Z" fill="#1B1514"/>
<path d="M425.023 211.988C426.148 207.485 427.377 202.47 427.786 200.73L428.502 197.66L429.423 201.754C429.935 204.005 430.14 210.248 429.833 215.57C429.526 221.404 428.298 228.875 426.66 234.299C425.227 239.212 422.976 245.864 421.543 249.139C420.11 252.312 417.449 257.429 415.607 260.295C412.537 265.309 411.616 266.026 402.098 270.427C396.469 272.985 389.202 276.67 386.03 278.614C382.755 280.559 379.889 281.991 379.582 281.889C379.377 281.684 382.345 277.181 386.337 271.859C390.328 266.537 396.264 259.169 399.539 255.484C402.712 251.8 407.727 245.864 410.49 242.18C413.253 238.495 417.245 232.048 419.291 227.852C421.338 223.655 423.999 216.491 425.023 211.988Z" fill="#1B1514"/>
<path d="M315.72 200.628C318.176 198.377 321.553 195.511 323.293 194.283C324.93 193.055 326.67 192.031 327.08 192.031C327.387 192.031 326.568 193.566 325.135 195.409C322.679 198.581 322.679 198.888 323.907 205.848C324.521 209.839 326.261 216.287 327.694 220.176C329.024 224.167 331.48 229.694 333.118 232.457C334.653 235.323 338.338 240.645 341.408 244.329C344.376 248.013 350.312 255.177 354.713 260.192C359.011 265.207 364.435 271.962 366.687 275.237C369.041 278.409 370.78 281.275 370.576 281.582C370.473 281.889 368.529 280.866 366.277 279.433C364.026 277.898 356.657 274.009 349.902 270.836C337.621 264.9 337.621 264.9 333.834 258.452C331.788 254.87 328.922 249.344 327.591 246.273C326.261 243.203 324.316 237.472 323.293 233.48C322.27 229.591 321.144 220.995 320.12 202.777L317.664 210.453C315.617 216.594 315.105 220.176 315.208 228.363C315.208 233.992 315.822 240.645 316.538 243.203C317.255 245.762 318.073 248.32 318.278 248.832C318.585 249.446 317.459 250.265 315.924 250.674C314.287 251.186 311.114 252.926 308.658 254.563C306.304 256.201 302.927 259.476 301.187 261.932C299.447 264.286 297.605 268.175 297.093 270.631C296.581 272.985 295.66 274.93 295.148 274.93C294.534 274.93 293.613 271.552 292.999 267.561C292.283 263.058 292.078 256.61 292.488 251.391C292.897 246.58 294.33 238.905 295.763 234.299C297.093 229.591 299.14 223.86 300.368 221.506C301.596 219.05 304.564 214.342 306.918 210.965C309.374 207.587 313.366 202.982 315.72 200.628Z" fill="#1B1514"/>
<path d="M373.544 181.285C373.851 179.648 374.363 177.908 374.67 177.498C374.874 176.987 375.284 176.68 375.693 176.68C376 176.68 377.74 181.49 382.652 198.172H389.509C393.296 198.172 396.469 198.479 396.469 198.991C396.469 199.4 394.422 202.573 391.863 206.155C389.305 209.634 387.463 212.807 387.667 213.319C387.872 213.728 389.816 214.445 391.966 214.854C394.115 215.366 396.366 215.98 396.98 216.287C397.492 216.594 394.729 219.971 383.471 230.41L380.094 245.25C378.252 253.438 376.512 260.397 376.102 260.806C375.795 261.216 373.646 254.154 367.301 228.773L360.444 222.939C356.759 219.766 353.791 216.901 353.894 216.594C354.098 216.287 356.248 215.673 358.704 215.263C361.16 214.752 363.514 214.24 363.923 213.933C364.333 213.728 362.491 210.453 359.625 206.666C356.862 202.777 354.508 199.4 354.508 198.991C354.508 198.479 357.68 198.172 368.836 198.172L370.78 191.315C371.906 187.426 373.134 183.025 373.544 181.285Z" fill="#1B1514"/>
<path d="M538.01 176.373C546.607 175.963 562.061 174.223 572.5 172.688C582.939 171.051 592.15 169.72 593.071 169.618C594.402 169.516 594.095 170.334 591.945 173.302C590.41 175.452 588.466 177.805 587.749 178.42C586.93 179.136 581.711 180.364 576.082 181.285C570.453 182.104 558.274 184.151 532.074 188.859L528.083 184.56C525.934 182.206 523.784 179.545 523.375 178.727C522.659 177.396 524.705 177.089 538.01 176.373Z" fill="#1B1514"/>
<path fill-rule="evenodd" clip-rule="evenodd" d="M356.452 6.07266C352.256 9.04063 345.399 14.1578 341.203 17.4328C337.007 20.8102 327.591 28.6906 320.223 34.9336C312.956 41.2789 301.903 51.6156 295.763 58.0633C289.622 64.5109 280.309 75.0523 275.191 81.5C269.972 87.9477 263.012 97.3633 259.635 102.48C256.258 107.495 252.266 113.841 250.834 116.502L248.07 121.414C253.802 136.049 258.407 146.079 261.989 153.141C265.571 160.202 271.712 170.948 275.805 177.191C279.797 183.332 285.119 191.11 287.575 194.283C290.031 197.558 292.078 200.423 292.078 200.73C292.078 201.038 290.645 203.289 289.008 205.848C287.37 208.406 285.733 210.453 285.426 210.453C285.119 210.453 282.048 208.202 278.569 205.438C274.987 202.675 267.516 195.716 261.887 189.78C256.258 183.946 248.684 174.94 245 169.72L238.348 160.305C222.484 160.305 210.305 159.793 200.992 159.281C191.679 158.667 175.099 157.03 164.148 155.597C153.198 154.266 142.963 153.141 141.428 153.141C139.688 153.141 137.846 154.062 136.823 155.495C135.799 156.723 133.036 163.58 130.682 170.539C128.328 177.601 125.155 187.938 123.723 193.566C122.29 199.195 120.243 208.611 119.22 214.547C118.094 220.483 116.763 230.82 116.047 237.574C115.687 241.531 115.292 246.015 114.965 249.73L114.965 249.735C114.734 252.359 114.536 254.598 114.409 255.996L113.898 262.137C78.8961 289.872 67.843 299.083 66.7172 300.516C65.6937 301.948 64.875 304.2 64.875 305.633C64.875 307.066 66.7172 315.765 68.9688 325.078C71.2203 334.391 74.7 347.082 76.7469 353.223C78.7938 359.363 82.7852 370.519 85.6508 377.785C88.4141 385.052 94.9641 399.38 100.184 409.512C105.301 419.644 112.465 432.744 116.047 438.475C119.731 444.309 127.202 455.157 132.831 462.526C138.358 469.997 146.136 479.924 150.23 484.632C154.221 489.442 162.818 498.653 169.266 505.203C175.713 511.753 185.641 521.271 191.27 526.184C196.898 531.096 206.826 539.181 213.273 543.991C219.721 548.904 226.169 553.509 227.602 554.226C229.034 554.942 227.602 553.305 224.531 550.644C221.461 547.983 214.092 540.921 208.156 534.985C202.22 529.049 193.009 518.815 187.79 512.367C182.468 505.92 175.099 495.992 171.312 490.363C167.526 484.734 161.795 475.523 158.52 469.895C155.142 464.266 149.206 452.701 145.113 444.309C141.121 435.814 136.004 424.352 133.957 418.723C131.808 413.094 128.533 403.371 126.691 397.23C124.746 391.09 121.983 380.446 120.55 373.691C118.605 364.583 117.684 357.214 117.377 345.547C116.968 336.029 117.275 327.637 117.889 324.566C118.503 321.701 119.22 318.733 119.629 317.914C120.038 316.686 118.708 316.174 112.26 315.56C111.764 315.502 111.265 315.445 110.768 315.387C106.863 314.936 103.115 314.502 102.026 314.23C99.8766 313.82 99.6719 314.23 99.6719 317.607C99.6719 319.756 100.388 326.818 101.207 333.266C102.026 339.713 103.459 348.924 104.277 353.734C105.198 358.545 107.45 368.677 109.395 376.25C111.339 383.823 114.716 395.593 116.968 402.348C119.322 409.102 120.959 414.834 120.652 415.141C120.345 415.448 119.731 414.527 119.22 413.094C118.708 411.661 117.275 407.977 116.047 404.906C114.819 401.836 111.748 393.239 109.19 385.973C106.734 378.706 103.152 366.63 101.207 359.363C99.2625 352.097 96.8062 340.737 95.6805 334.289C94.5547 327.841 93.4289 320.473 93.1219 317.914C92.7125 314.639 91.8937 312.797 90.2562 311.671C88.9258 310.75 84.9344 308.908 81.25 307.373L74.5977 304.814C81.7617 302.972 88.2094 301.13 93.5312 299.492L103.254 296.524C136.618 269.198 155.449 253.438 166.707 243.817C177.965 234.299 190.553 223.451 194.647 219.766C200.89 214.24 202.527 213.216 203.858 214.138C204.587 214.623 208.584 216.84 213.415 219.518C214.689 220.225 216.022 220.963 217.367 221.711C219.254 222.759 221.247 223.861 223.191 224.935C227.887 227.53 232.299 229.968 234.254 231.127C237.12 232.662 238.962 233.992 238.348 233.992C237.836 233.992 230.877 231.843 222.996 229.387C215.116 226.828 208.054 224.781 207.44 224.781C206.621 224.781 209.282 231.024 213.58 239.519L220.949 254.256C239.166 256.917 251.243 259.373 259.43 261.42C267.72 263.467 274.68 265.412 274.987 265.719C275.294 266.026 275.703 268.175 275.805 270.631L276.215 275.032C260.352 281.07 249.298 286.085 241.418 290.077C233.538 294.068 222.484 300.209 216.855 303.791C211.227 307.373 202.732 313.309 197.922 316.891C193.112 320.575 185.334 327.023 180.626 331.219C175.918 335.415 170.698 340.839 169.061 343.193C167.526 345.649 166.195 348.72 166.195 350.152C166.195 351.585 169.675 362.229 173.973 373.896C178.272 385.666 185.334 405.52 189.734 418.211C194.033 430.902 199.355 445.127 201.402 449.938C203.448 454.748 207.542 462.526 210.408 467.336C213.273 472.146 218.8 480.436 222.791 485.758C226.783 491.08 235.584 501.212 242.441 508.171C249.196 515.13 259.533 524.751 265.469 529.459C271.405 534.269 282.663 542.456 290.543 547.573C298.423 552.793 309.067 559.445 314.082 562.209C319.199 565.074 327.182 569.27 331.992 571.727C336.802 574.08 341.715 576.434 343.045 576.946C344.273 577.458 345.297 577.662 345.297 577.355C345.297 577.048 340.384 573.876 334.346 570.294C328.205 566.712 317.766 559.65 311.012 554.533C304.257 549.518 293.716 540.614 287.575 534.781C281.434 528.947 272.735 519.736 268.334 514.414C263.831 509.092 256.463 499.165 251.959 492.41C247.456 485.655 240.292 473.17 236.198 464.777C232.105 456.283 226.373 442.466 223.61 434.074C220.745 425.58 217.47 413.913 216.241 407.977C214.706 400.608 213.785 391.704 213.376 379.525L212.762 361.82C185.027 352.609 176.02 349.436 174.895 348.822C172.95 347.798 173.052 347.696 175.918 347.082C177.658 346.775 181.649 345.854 184.924 345.035C188.097 344.216 192.702 342.272 195.159 340.737C197.512 339.304 208.668 331.116 219.926 322.724L240.395 307.475L200.48 347.287C223.098 356.293 229.955 358.852 230.467 358.852C230.877 358.852 232.412 356.6 233.845 353.939C235.277 351.278 239.985 344.523 244.181 338.895C248.48 333.266 255.644 325.078 260.249 320.677C264.752 316.379 272.838 310.034 278.057 306.554L287.473 300.311C292.18 306.452 295.967 310.75 298.833 313.82C301.801 316.891 306.918 321.496 310.398 324.055C316.231 328.353 316.641 328.865 316.027 331.73C315.617 333.368 315.413 337.564 315.413 340.941C315.515 344.319 316.027 349.436 316.743 352.199C317.357 355.065 319.404 360.489 321.246 364.48C323.191 368.472 326.875 374.408 329.638 377.683C332.299 381.06 337.826 386.587 341.715 389.862C345.706 393.137 352.563 398.049 357.066 400.71C361.57 403.473 366.38 405.93 367.812 406.441C369.655 406.953 367.301 403.985 360.034 396.616C354.405 390.783 347.855 383.414 345.604 380.344C343.25 377.273 339.77 371.542 337.826 367.551C335.881 363.559 333.732 358.34 333.016 355.781C332.299 353.223 331.685 348.413 331.685 345.035C331.583 341.658 331.788 337.257 332.197 335.312C332.606 333.368 333.834 330.502 335.062 328.865C336.7 326.613 337.928 326.102 341.203 326.102C343.455 326.102 346.013 326.818 346.832 327.637C347.651 328.455 348.367 329.479 348.367 329.991C348.367 330.4 347.651 332.549 346.73 334.801C345.604 337.564 345.195 340.941 345.502 345.547C345.706 350.05 346.73 354.041 348.572 357.828C350.107 360.898 353.791 366.63 356.759 370.519C357.503 371.493 358.291 372.524 359.079 373.556C361.438 376.644 363.796 379.731 364.947 381.265C366.482 383.414 368.734 389.043 370.269 394.672C371.702 399.994 373.441 404.702 374.158 405.111C374.874 405.52 376.307 405.93 377.33 405.93C378.559 405.93 379.275 404.804 379.684 402.143C379.978 400.086 380.647 396.341 381.153 393.511L381.22 393.137C381.834 390.373 383.062 386.177 384.085 383.926C385.109 381.674 389.714 374.101 394.32 367.039C398.925 359.977 403.223 352.404 403.838 350.152C404.349 347.901 404.656 344.216 404.452 341.965C404.145 339.713 403.223 336.336 402.302 334.596C401.177 332.345 400.87 330.605 401.484 329.479C401.893 328.455 403.121 327.33 404.042 326.92C404.963 326.409 407.317 326.102 409.262 326.102C411.513 326.102 413.663 326.92 414.891 328.148C416.016 329.274 417.347 331.935 417.961 334.084C418.473 336.131 418.984 340.43 418.984 343.5C418.984 346.57 418.268 351.892 417.449 355.27C416.63 358.647 414.277 364.583 412.434 368.574C410.49 372.566 406.294 379.218 403.121 383.414C399.846 387.61 393.705 394.672 389.407 399.073C385.109 403.371 382.141 406.953 382.652 406.953C383.164 406.953 387.565 404.702 392.375 401.836C397.185 398.97 404.247 393.955 408.136 390.783C412.025 387.61 417.449 382.186 420.213 378.809C422.976 375.431 427.07 368.984 429.219 364.48C431.368 359.977 433.722 353.325 434.438 349.641C435.052 345.956 435.359 340.43 435.052 337.359C434.745 334.289 434.234 331.014 433.927 330.195C433.517 329.172 434.95 327.637 438.225 325.385C440.886 323.543 445.594 319.654 448.766 316.686C451.837 313.718 456.545 308.703 459.103 305.633L463.811 300.004C477.832 309.522 486.429 316.584 492.058 322.008C497.584 327.33 505.158 335.824 508.945 340.941C512.731 346.059 517.132 352.302 518.872 354.963C520.816 358.135 522.352 359.67 523.375 359.363C524.108 359.18 529.185 356.948 535.085 354.353L535.087 354.352L535.088 354.352L535.166 354.318L535.348 354.238C535.956 353.971 536.571 353.7 537.191 353.427C543.946 350.357 549.268 347.491 549.063 346.98C548.756 346.468 540.671 338.485 531.153 329.172C521.533 319.961 513.243 311.671 512.731 310.75C512.22 309.931 513.345 310.443 515.29 311.876C515.624 312.122 516.157 312.516 516.855 313.032L516.993 313.134L517.003 313.141L517.014 313.149L517.025 313.158C520.461 315.696 527.547 320.933 534.633 326.102C543.332 332.447 552.543 338.997 555.102 340.532C557.66 342.067 562.47 344.114 565.848 344.933C569.225 345.854 573.523 346.57 575.366 346.57C577.105 346.57 578.641 347.082 578.641 347.594C578.641 348.105 574.854 349.948 570.248 351.585C565.541 353.223 556.432 356.191 549.984 358.237L538.215 361.922C537.089 393.648 536.168 402.348 534.633 409.512C533.507 415.141 530.232 426.398 527.571 434.586C524.808 442.773 519.895 455.157 516.416 462.219C513.038 469.28 507.614 479.105 504.441 484.223C501.269 489.34 495.538 497.527 491.751 502.645C487.964 507.762 480.902 516.256 476.092 521.578C471.384 526.9 462.788 535.395 456.954 540.512C451.223 545.629 442.421 552.691 437.611 556.375C432.698 560.059 423.999 566.098 418.166 569.68C412.434 573.364 407.931 576.434 408.238 576.639C408.545 576.741 414.584 573.876 421.85 570.294C429.014 566.712 441.091 559.957 448.664 555.352C456.237 550.746 467.086 543.582 472.715 539.488C478.344 535.395 488.169 527.514 494.616 521.987C501.064 516.359 509.866 507.966 514.164 503.156C518.36 498.346 523.989 491.694 526.548 488.316C529.106 484.939 533.507 478.696 536.373 474.5C539.238 470.304 543.844 462.219 546.607 456.59C549.473 450.961 553.873 440.624 556.534 433.562C558.266 428.784 562.2 417.632 566.592 405.18L566.598 405.163C568.695 399.219 570.896 392.979 573.012 386.996C579.459 368.472 584.781 351.995 584.781 350.357C584.781 348.822 583.246 345.445 581.506 342.886C579.664 340.327 575.366 335.824 571.988 332.856C568.611 329.888 561.959 324.464 557.148 320.78C552.338 317.095 543.844 311.057 538.215 307.373C532.586 303.688 523.375 298.162 517.746 294.989C512.117 291.816 501.985 286.802 495.23 283.731C488.476 280.763 480.902 277.591 478.446 276.874L474.045 275.441C475.069 268.277 475.478 266.128 475.58 265.923C475.683 265.821 482.949 263.877 491.648 261.625C500.348 259.373 512.629 256.712 518.974 255.791L530.334 253.949C540.876 231.741 543.741 225.191 543.639 224.986C543.434 224.781 535.963 227.033 526.957 229.898C517.951 232.764 510.48 235.016 510.377 234.811C510.275 234.606 513.959 232.355 518.565 229.796C523.17 227.237 531.87 222.325 538.01 218.845C548.142 213.012 549.063 212.602 550.291 214.342C551.11 215.263 558.377 221.813 566.462 228.875C574.547 235.937 586.726 246.376 593.48 252.005C600.235 257.634 615.177 269.812 626.742 279.126L647.723 296.013C665.94 301.13 672.08 302.972 673.104 303.381C674.537 303.893 673.002 304.916 666.963 307.27L658.98 310.443C656.217 330.093 654.784 339.509 653.863 344.012C652.942 348.515 650.384 358.852 648.132 367.039C645.88 375.227 641.684 388.122 638.819 395.695C635.953 403.269 632.78 411.149 631.655 413.094C630.631 415.038 630.017 415.755 630.324 414.629C630.734 413.503 632.883 407.055 635.134 400.301C637.386 393.546 640.661 381.777 642.605 374.203C644.448 366.63 646.904 354.144 648.132 346.57C649.36 338.997 650.691 328.148 651.202 322.52C651.714 316.891 652.021 312.183 651.919 312.08C651.919 311.876 647.211 312.285 641.582 312.899L641.253 312.935C635.771 313.533 631.243 314.027 631.143 314.127C631.041 314.23 631.655 316.686 632.576 319.449C633.906 323.338 634.316 328.455 634.213 340.941C634.213 354.553 633.804 359.466 631.552 370.109C630.12 377.171 627.663 386.894 626.23 391.909C624.798 396.821 621.523 406.646 618.964 413.912C616.406 421.077 610.981 433.87 606.887 442.262C602.794 450.756 596.551 462.73 592.969 468.871C589.489 475.012 583.758 484.223 580.38 489.34C577.003 494.457 571.886 501.519 569.02 505.203C566.257 508.888 560.219 516.154 555.716 521.476C551.11 526.798 541.899 536.418 535.145 542.866C528.39 549.416 524.296 553.816 525.934 552.793C527.571 551.77 532.688 548.085 537.191 544.708C541.695 541.33 550.189 534.371 556.125 529.356C562.061 524.341 571.17 516.052 576.389 510.934C581.711 505.817 590.513 496.504 595.937 490.363C601.463 484.223 609.548 474.5 613.949 468.871C618.35 463.242 625.719 452.905 630.427 445.844C635.032 438.782 642.094 427.013 646.085 419.746C650.077 412.48 655.603 401.324 658.469 395.184C661.232 389.043 665.735 377.888 668.498 370.621C671.262 363.355 675.253 351.585 677.198 344.523C679.245 337.462 682.008 326.409 683.543 319.961C684.976 313.513 686.102 306.759 686.102 305.121C685.999 302.87 684.873 300.925 681.701 297.957C679.347 295.705 668.601 287.006 657.752 278.512L638.102 263.16C637.284 255.28 636.567 247.195 635.953 240.133C635.339 233.071 633.804 221.813 632.678 215.059C631.552 208.304 629.096 197.046 627.152 189.984C625.207 182.923 622.034 172.586 619.988 166.957C617.941 161.328 615.484 155.904 614.563 154.88C613.642 153.857 611.493 153.038 609.651 153.141C607.809 153.141 601.668 153.857 596.039 154.676C590.41 155.495 578.538 156.927 569.737 157.746C560.833 158.565 544.253 159.588 532.791 159.998L512.015 160.816C506.898 168.697 502.702 174.53 499.427 178.727C496.049 182.923 489.806 189.78 485.61 193.976C481.312 198.172 475.069 203.698 471.794 206.257C466.165 210.658 465.653 210.863 464.63 209.02C464.016 207.997 462.48 205.745 461.252 204.21L458.898 201.242C471.282 184.97 477.32 176.373 480.288 171.562C483.256 166.752 488.373 157.337 491.648 150.582C494.923 143.827 499.017 134.616 500.859 130.113L504.134 121.926C495.64 107.7 489.397 98.182 484.587 91.7344C479.879 85.2867 471.998 75.3594 467.086 69.7305C462.173 64.1016 454.088 55.607 449.073 50.8992C444.059 46.0891 435.359 38.3109 429.73 33.5008C424.102 28.5883 413.765 20.2984 406.703 14.8742C399.641 9.55234 392.273 4.02578 390.328 2.79766C388.384 1.46719 391.761 5.15156 397.902 10.9852C404.042 16.8188 412.844 26.2344 417.552 31.8633C422.157 37.4922 429.423 47.4195 433.824 53.8672C438.123 60.3148 445.491 73.2102 450.097 82.5234C454.702 91.8367 460.127 103.709 462.071 108.928L465.551 118.446C476.297 118.344 480.186 118.651 481.107 119.163C482.54 119.777 482.642 119.47 482.028 117.32C481.619 115.887 478.139 108.314 474.25 100.434C470.361 92.5531 468.109 87.2312 469.235 88.6641C470.361 90.0969 473.636 95.1117 476.502 99.9219C479.367 104.732 483.154 112.101 484.996 116.297C488.169 123.768 488.373 123.973 491.955 124.28C494.105 124.382 495.742 124.791 495.742 125.303C495.742 125.713 493.798 126.941 491.444 128.066C488.987 129.192 485.508 132.058 483.768 134.514C481.926 136.868 480.391 138.608 480.391 138.301C480.391 137.994 481.107 136.049 481.926 134.002C482.847 131.853 483.461 129.499 483.461 128.885C483.461 127.964 481.107 127.555 475.069 127.555H466.574C463.709 141.473 461.355 150.07 459.513 155.699C457.568 161.328 453.884 170.334 451.223 175.656C448.562 180.978 446.208 185.481 446.003 185.686C445.798 185.788 443.137 183.844 440.272 181.285C437.304 178.727 434.541 176.68 434.131 176.68C433.62 176.68 431.573 172.893 429.423 168.288C427.274 163.58 423.795 157.132 421.748 153.959C419.701 150.684 414.379 144.237 410.08 139.734C405.68 135.128 399.539 129.499 396.469 127.043C393.398 124.689 390.123 122.438 389.305 121.926C388.486 121.516 390.635 124.075 394.115 127.657C397.595 131.239 402.712 137.687 405.68 141.883C408.545 146.079 412.23 153.141 413.867 157.541C415.607 161.84 416.938 165.831 416.938 166.445C416.938 167.059 413.56 166.241 409.569 164.808C405.475 163.375 398.72 161.533 394.729 160.714C390.635 159.895 381.936 159.281 375.488 159.281C369.041 159.281 360.341 159.998 356.35 160.816C352.256 161.635 345.502 163.477 341.51 164.91L334.039 167.469C337.007 159.179 339.156 154.164 340.691 151.094C342.227 148.023 344.887 143.418 346.627 140.859C348.265 138.301 353.177 132.672 357.476 128.271L365.254 120.186C356.555 125.508 349.8 131.137 344.683 136.254C339.463 141.269 333.118 148.945 330.355 153.141C327.694 157.337 323.907 164.194 322.065 168.288C319.199 174.53 317.766 176.373 312.547 180.262C309.17 182.82 306.202 184.867 305.895 184.867C305.587 184.867 303.336 180.671 300.777 175.656C298.219 170.641 294.739 162.147 292.999 157.03C291.259 151.81 289.008 143.623 287.984 138.812C286.245 130.318 286.142 130.113 283.277 130.216C282.786 130.246 282.103 130.286 281.31 130.332L281.309 130.332C279.453 130.441 276.994 130.584 274.987 130.727C272.019 130.932 269.562 131.444 269.562 131.955C269.562 132.31 270.255 135.28 271.105 138.93C271.176 139.234 271.248 139.542 271.321 139.853C271.382 140.118 271.444 140.385 271.507 140.655C272.633 144.953 274.987 152.731 276.829 157.746C278.569 162.761 281.434 169.72 283.072 173.098C285.323 177.703 285.528 178.624 283.993 176.68C282.765 175.247 278.978 168.39 275.396 161.328C271.814 154.266 267.618 143.93 265.98 138.403C263.115 128.885 262.705 128.169 259.328 126.736C256.462 125.405 256.155 125.098 257.793 124.791C258.182 124.721 258.668 124.626 259.193 124.523C260.188 124.328 261.323 124.107 262.194 123.973C263.831 123.563 265.776 120.8 269.665 113.022C272.633 107.188 277.648 98.5914 280.82 93.7812C284.095 88.9711 288.189 83.4445 289.929 81.5C291.976 79.1461 291.259 80.7836 287.78 86.1055C284.812 90.6086 280.411 97.9773 278.057 102.48C275.703 106.984 272.838 113.124 271.712 116.092C270.177 119.879 269.972 121.414 270.893 121.414C271.507 121.414 275.498 120.595 279.592 119.674L286.961 117.832C292.078 102.787 297.093 91.5297 301.289 83.0352C305.587 74.643 312.649 62.157 317.152 55.4023C321.655 48.6477 328.82 38.7203 333.118 33.3984C337.416 28.0766 346.32 18.4562 352.973 12.2133C359.625 5.86797 364.742 0.648438 364.537 0.648438C364.23 0.648438 360.546 3.10469 356.452 6.07266ZM569.941 364.173C571.067 359.261 571.17 357.828 570.248 357.93C569.532 358.033 565.234 359.466 560.73 361.001L552.543 363.969C550.496 384.233 548.961 394.672 547.938 400.301C546.812 405.93 544.56 415.345 542.82 421.281C541.183 427.217 538.215 436.121 536.27 441.238C534.223 446.355 532.791 450.552 532.893 450.756C532.995 450.859 538.42 440.317 544.97 427.217C551.52 414.117 558.581 398.97 560.628 393.648C562.573 388.327 565.234 380.958 566.257 377.273C567.383 373.589 569.02 367.755 569.941 364.173ZM190.553 361.001C186.459 359.773 182.57 358.442 181.956 358.135C181.24 357.828 181.035 358.852 181.342 361.103C181.547 362.945 182.673 368.165 183.798 372.668C184.924 377.171 187.892 386.382 190.348 393.137C192.805 399.891 199.969 415.55 206.212 427.934C212.455 440.317 217.981 450.961 218.493 451.473C219.005 451.984 217.367 446.97 214.809 440.215C212.25 433.46 208.259 420.565 206.109 411.559C203.858 402.552 201.299 388.941 200.378 381.367C199.457 373.794 198.536 366.63 198.331 365.504C198.024 363.969 196.08 362.843 190.553 361.001ZM398.516 173.609C393.296 172.381 385.313 171.358 378.559 171.051C372.418 170.846 365.97 170.948 364.23 171.153C362.593 171.46 357.476 172.586 352.973 173.712C348.47 174.837 340.18 178.01 334.551 180.773C328.922 183.537 321.144 188.245 317.152 191.212C313.263 194.18 307.634 199.605 304.666 203.289C301.596 206.973 297.4 213.626 295.148 218.129C292.897 222.632 290.236 229.796 289.11 233.992C288.087 238.188 286.859 245.352 286.449 249.855C285.938 255.587 286.245 260.806 287.37 267.459C288.291 272.678 290.031 279.637 291.362 282.81C292.692 286.085 295.763 291.714 298.219 295.398C300.675 299.083 305.69 305.019 309.477 308.703C313.263 312.388 317.869 316.277 319.813 317.3C322.577 318.835 321.86 317.812 316.027 311.671C312.035 307.475 307.43 302.051 305.69 299.492C303.95 296.934 301.187 292.021 299.345 288.439C297.605 284.959 296.377 281.889 296.684 281.582C296.991 281.275 299.14 282.605 301.596 284.55C303.95 286.392 309.374 290.179 313.57 293.045C317.766 295.808 327.284 301.744 334.551 306.247C341.92 310.648 350.005 316.072 352.768 318.119C355.838 320.575 358.499 323.952 360.137 327.33C361.57 330.298 362.695 333.88 362.695 335.312C362.695 336.745 363.105 338.587 363.616 339.406C364.333 340.532 364.742 339.918 365.356 336.848C365.663 334.596 365.766 329.991 365.356 326.613C364.947 323.236 363.514 318.016 362.184 315.048C360.341 311.364 358.295 308.908 355.327 306.861C352.973 305.326 346.423 302.46 340.794 300.516C332.709 297.752 330.252 296.422 329.229 294.375C328.615 292.942 327.694 289.974 327.182 287.825L326.363 283.834C334.346 288.848 340.282 291.714 344.785 293.454C349.288 295.194 354.098 297.548 355.531 298.673C356.964 299.799 361.467 304.916 365.561 310.034C369.655 315.253 373.237 320.882 373.646 322.52L374.26 325.59C376.614 320.882 380.401 315.048 384.188 309.727C387.974 304.405 392.375 299.083 394.013 298.059C395.65 296.934 399.539 295.194 402.609 294.17C405.68 293.147 410.183 291.1 412.639 289.77C414.993 288.337 417.859 285.778 418.984 284.141L421.031 281.07C413.048 285.369 410.08 286.188 407.829 285.983C405.884 285.778 404.145 285.062 403.94 284.345C403.735 283.731 404.554 283.117 405.577 283.117C406.703 283.117 409.773 280.968 412.434 278.205C415.095 275.544 419.394 270.631 421.85 267.254C424.306 263.877 427.888 258.145 429.73 254.461C431.573 250.777 434.131 244.329 435.462 240.133C437.304 234.197 437.816 230.103 437.816 221.711C437.816 214.24 437.304 209.225 436.076 205.336L434.234 199.707C439.248 204.415 442.626 208.816 445.082 212.5C447.436 216.184 450.711 222.018 452.144 225.498C453.577 229.08 455.521 234.811 456.237 238.291C457.056 241.873 458.08 248.218 458.489 252.414C458.796 256.712 458.591 263.672 457.977 268.277C457.261 272.78 455.623 279.945 454.191 284.141C452.758 288.337 449.995 294.58 447.948 297.957C445.901 301.437 445.082 303.381 446.105 302.562C447.129 301.744 450.199 297.548 452.963 293.352C455.726 289.053 459.205 281.991 460.638 277.488C462.583 271.348 463.402 266.435 463.709 257.531C464.118 247.911 463.811 244.124 462.071 236.755C460.843 231.843 458.591 224.986 457.056 221.404C455.419 217.924 452.246 212.295 449.995 208.918C447.743 205.541 442.626 199.707 438.839 196.023C434.95 192.338 429.526 187.835 426.66 185.891C423.897 183.946 418.37 180.876 414.379 179.136C410.49 177.294 403.326 174.837 398.516 173.609ZM419.905 298.162C420.315 297.241 420.417 296.422 420.11 296.524C419.803 296.524 413.97 298.571 407.215 301.027C399.232 303.995 394.115 306.452 392.682 308.191C391.352 309.624 389.407 313.82 388.281 317.607C386.746 322.417 386.234 326.716 386.439 331.73L386.746 338.895C389.407 330.195 391.761 325.385 393.603 322.622C395.65 319.552 400.051 315.253 404.656 311.978C408.852 308.908 413.867 304.916 415.709 303.177C417.654 301.437 419.496 299.185 419.905 298.162ZM598.802 165.934C600.44 165.115 602.794 163.58 604.227 162.454C605.659 161.226 606.99 160.305 607.297 160.305C607.604 160.305 607.297 162.556 606.58 165.422C605.25 170.437 605.352 170.744 609.241 179.443C611.493 184.458 614.461 191.622 615.996 195.613C617.429 199.605 618.555 203.187 618.555 203.801C618.452 204.312 616.917 201.856 615.177 198.172C613.335 194.488 610.06 188.142 607.809 184.048C605.557 179.955 603.51 176.577 603.203 176.68C602.896 176.68 601.463 179.238 597.062 187.938L602.589 196.33C605.557 201.038 610.879 210.351 614.256 217.105C617.634 223.86 622.341 234.913 624.593 241.668C626.947 248.423 628.687 254.256 628.584 254.666C628.38 255.075 620.192 249.139 610.367 241.463C600.542 233.788 583.348 220.176 572.193 211.272C560.219 201.652 551.52 195.409 550.701 195.716C550.552 195.815 549.763 196.319 548.465 197.147L548.449 197.158C544.394 199.748 535.405 205.488 525.422 211.988C512.22 220.585 495.742 230.82 488.885 234.811C481.926 238.905 476.092 242.077 475.785 241.873C475.478 241.77 474.659 238.905 473.738 235.527C472.92 232.15 472.305 228.568 472.203 227.545C472.203 226.316 474.762 224.577 480.595 221.813C485.303 219.562 492.979 215.366 497.789 212.5C502.599 209.532 509.559 204.824 513.448 201.959C517.234 198.991 520.305 196.125 520.305 195.613C520.305 194.999 519.077 191.52 517.541 187.835C515.904 184.048 514.369 180.569 513.857 180.159C513.448 179.648 512.322 180.364 511.401 181.797C510.377 183.23 507.307 186.812 504.441 189.78C501.678 192.748 499.12 194.897 498.812 194.59C498.505 194.385 499.938 192.134 501.883 189.78C503.93 187.323 507.307 182.923 509.354 179.955C511.401 177.089 513.141 173.507 513.141 172.074C513.141 170.641 513.448 169.516 513.959 169.516C514.369 169.413 515.904 170.334 517.541 171.562C519.691 173.098 521.84 173.609 527.162 173.609C531.051 173.609 540.773 173.098 548.961 172.586C557.148 172.074 571.067 170.641 579.971 169.516C588.773 168.39 597.267 166.752 598.802 165.934ZM143.782 160.509C143.68 160.714 144.396 162.863 145.317 165.422C146.852 169.925 146.852 170.13 143.884 176.168C142.247 179.545 138.665 187.835 136.106 194.59C133.445 201.345 131.398 206.973 131.603 207.076C131.808 207.28 133.241 204.517 134.98 200.935C136.319 198.091 138.889 193.195 141.068 189.042C141.555 188.115 142.022 187.224 142.452 186.402C144.908 181.899 147.262 177.908 147.569 177.396C147.978 176.987 149.82 179.034 151.765 182.002C153.812 185.379 154.835 187.835 154.323 188.654C153.922 189.135 152.39 191.376 150.564 194.048C150.059 194.785 149.533 195.555 149.002 196.33C146.545 199.809 141.326 209.225 137.437 217.105C133.548 224.986 128.737 236.244 126.793 242.18C124.848 248.116 123.211 253.233 123.211 253.745C123.211 254.154 129.045 249.958 136.209 244.534C143.475 239.007 158.929 226.93 170.801 217.617C179.628 210.632 188.225 203.877 192.792 200.289C194.315 199.093 195.389 198.249 195.875 197.865L199.457 195.102C236.71 219.562 253.802 230.308 261.375 234.913L275.191 243.101C277.852 231.638 278.671 227.749 278.773 227.135C278.773 226.419 274.987 223.962 270.279 221.813C265.673 219.562 258.202 215.468 253.699 212.807C249.196 210.044 242.134 205.336 238.041 202.47C234.049 199.502 230.672 196.534 230.672 195.92C230.672 195.204 231.9 191.417 233.435 187.426C234.97 183.434 236.301 180.159 236.505 180.057C236.71 179.852 240.804 183.741 245.614 188.756C250.527 193.669 253.802 196.637 253.085 195.511C252.266 194.283 249.401 190.598 246.74 187.323C243.977 183.946 240.906 179.545 239.78 177.498C238.757 175.349 237.836 172.893 237.836 172.074C237.836 171.255 237.324 170.334 236.812 170.027C236.198 169.72 234.766 170.437 233.435 171.562C231.593 173.2 229.648 173.609 222.996 173.609C218.493 173.609 208.566 173.098 200.992 172.586C193.419 171.972 179.807 170.539 170.801 169.413C156.575 167.571 153.914 166.957 150.332 164.501C149.154 163.698 147.949 162.867 146.979 162.198C146.094 161.589 145.405 161.114 145.113 160.919C144.396 160.509 143.884 160.305 143.782 160.509Z" fill="#1B1514"/>
<path d="M161.999 176.475C160.055 174.019 158.008 171.46 157.598 170.846V170.744C157.087 170.027 157.291 169.516 157.905 169.516C158.52 169.516 166.093 170.641 174.588 171.972C183.184 173.405 194.749 175.042 200.173 175.554C205.7 176.168 214.092 176.68 218.902 176.68C224.02 176.68 227.602 177.089 227.602 177.703C227.602 178.215 225.862 180.876 223.815 183.537C221.666 186.3 220.028 188.552 219.926 188.756C219.926 188.859 215.73 188.347 210.715 187.426C205.598 186.607 195.056 184.765 187.176 183.332C179.295 181.899 171.21 180.773 169.266 180.773C166.298 180.876 165.07 180.159 161.999 176.475Z" fill="#1B1514"/>
<path fill-rule="evenodd" clip-rule="evenodd" d="M52.8915 470L59.2163 477.564C62.7964 481.629 65.6605 485.222 65.6605 485.506C65.6605 485.789 59.9324 492.219 53.0109 499.877C46.0893 507.63 37.0198 518.314 32.9623 523.797C28.9049 529.281 23.1767 537.128 20.432 541.288C17.3293 545.827 14.9425 548.474 14.2265 547.907C13.7492 547.434 10.0497 543.558 6.23096 539.398C-0.0938712 532.685 -0.80989 531.645 0.622148 529.943C1.4575 528.903 6.82764 522.285 12.5558 515.288C18.2839 508.292 28.4275 496.568 34.991 489.288C41.6739 482.007 48.3567 474.727 49.9081 473.026L52.8915 470ZM733.467 502.997C736.57 502.997 739.673 503.659 742.418 505.077C744.804 506.401 747.191 508.67 748.026 510.561C748.862 512.546 749.22 515.95 748.862 519.07C748.384 521.906 746.833 526.823 745.282 529.943C743.611 533.063 740.628 537.79 734.661 545.543L730.245 541.95C725.949 538.547 725.83 538.358 727.501 535.805C728.455 534.387 729.291 531.928 729.291 530.416C729.291 528.336 728.336 527.106 725.949 525.972C723.562 524.837 721.295 524.554 717.357 525.026C714.374 525.31 708.765 526.634 704.827 527.863C700.889 529.186 697.428 530.132 697.308 530.132C697.07 530.037 697.905 526.35 698.979 521.906C700.053 517.463 701.605 513.303 702.321 512.546C703.037 511.79 707.094 509.899 711.39 508.386C715.567 506.779 721.295 504.982 723.92 504.321C726.546 503.659 730.842 503.091 733.467 502.997V502.997ZM347.533 646.236L385.602 646.708V652.57C385.602 655.88 385.96 664.389 387.392 684.527H377.248C367.224 684.527 366.985 684.527 364.956 681.691C363.047 679.138 362.689 678.949 360.78 680.273C359.586 681.029 355.051 682.447 350.636 683.393C346.221 684.244 342.282 684.811 341.924 684.527C341.566 684.244 341.328 682.164 341.328 679.8C341.328 675.545 341.447 675.545 346.459 674.411C349.204 673.843 352.784 672.331 354.335 671.102C356.364 669.494 357.199 667.32 358.751 656.163H353.381C350.397 656.163 347.653 655.974 347.414 655.785C347.056 655.596 346.937 653.327 347.175 650.774L347.533 646.236ZM696.712 479.927C697.547 480.117 699.098 480.306 700.292 480.306C701.366 480.306 703.395 480.873 704.707 481.629C707.094 482.858 706.975 483.237 693.132 502.524L688.835 500.917C686.449 499.971 683.704 499.215 682.63 499.215C681.675 499.215 679.766 499.782 678.453 500.539C676.305 501.862 675.709 501.673 671.651 498.459C667.713 495.339 667.474 494.771 668.906 493.069C669.861 492.029 673.441 489.288 676.902 486.924C680.363 484.56 685.971 481.913 689.194 481.062C692.535 480.211 695.876 479.644 696.712 479.927V479.927ZM664.61 498.27C664.968 498.27 667.116 499.688 669.145 501.39C672.844 504.321 672.844 504.51 671.293 507.535C670.338 509.237 669.503 511.317 669.503 512.263C669.503 513.113 670.458 514.91 671.77 516.234C673.68 518.219 674.992 518.597 679.289 518.408C682.153 518.314 687.045 517.368 690.148 516.328C693.251 515.193 696.234 514.343 696.712 514.343C697.189 514.437 696.712 517.935 695.757 522.19C694.683 526.445 693.609 530.416 693.251 530.888C692.893 531.456 688.358 533.157 683.107 534.67C677.26 536.372 671.412 537.507 667.594 537.507C663.178 537.507 660.433 536.939 658.047 535.616C656.137 534.481 653.631 532.117 652.438 530.416C650.886 527.957 650.409 525.688 650.767 521.906C651.125 519.07 652.438 514.626 653.989 511.979C655.421 509.426 658.166 505.266 660.195 502.808C662.104 500.35 664.133 498.27 664.61 498.27V498.27ZM83.203 502.997C83.561 502.997 86.5444 505.55 95.4946 514.343L83.3223 534.008C76.5201 544.787 67.5699 560.009 63.3931 567.762C59.3357 575.609 55.5169 582.322 55.1589 582.7C54.6816 583.078 50.7435 580.526 38.0938 570.598L48.1181 554.052C53.6075 544.976 62.3191 531.361 67.4506 523.797C72.582 516.234 78.0715 508.481 79.6229 506.59C81.1743 504.604 82.7256 502.997 83.203 502.997ZM74.2527 505.928C74.6108 505.833 73.8947 507.441 72.582 509.426C71.2693 511.317 67.4506 516.895 64.1091 521.717C58.9777 529.092 56.949 531.077 52.0562 533.536C48.7147 535.237 40.9579 539.019 34.7524 541.95C28.4275 544.881 23.1767 546.867 23.0574 546.394C22.8187 545.921 26.6375 539.965 31.411 533.157C36.7811 525.499 41.1965 520.204 42.9866 519.354C44.6573 518.597 52.1755 515.288 59.6937 511.979C67.3312 508.67 73.7754 505.928 74.2527 505.928V505.928ZM634.895 525.783C635.253 525.688 637.163 527.201 639.072 529.092C642.652 532.496 642.652 532.496 640.266 534.197C638.953 535.143 634.179 538.547 629.525 541.667C624.991 544.881 620.933 547.434 620.575 547.434C620.336 547.434 618.666 545.921 614.012 540.816L624.155 533.347C629.764 529.186 634.657 525.783 634.895 525.783ZM113.395 529.565C113.753 529.47 117.333 531.834 121.51 534.67C125.567 537.601 128.909 540.343 128.909 540.816C128.909 541.383 121.271 546.867 111.963 553.107C102.535 559.347 87.1411 569.18 77.5942 574.853C68.1666 580.62 60.0517 585.064 59.6937 584.78C59.455 584.496 63.0351 577.216 76.6395 552.634L94.7786 541.099C104.684 534.765 113.156 529.565 113.395 529.565V529.565ZM701.724 540.816C702.082 540.816 703.156 541.478 704.111 542.234C705.185 543.085 707.691 544.219 709.839 544.692C712.822 545.354 714.732 545.165 723.204 541.95L726.785 544.976C728.694 546.583 730.365 548.474 730.365 549.136C730.365 549.798 727.262 552.445 723.562 555.187C719.744 557.834 713.777 561.143 710.077 562.467C706.02 563.885 701.485 564.831 698.144 564.831C695.28 564.736 690.745 564.074 688.358 563.223C685.852 562.372 683.823 561.238 683.823 560.671C683.823 560.198 686.449 557.078 689.552 553.769C692.654 550.554 696.473 546.299 698.144 544.314C699.815 542.423 701.366 540.816 701.724 540.816ZM610.789 542.801C610.909 542.707 622.604 556.132 636.686 572.489C650.887 588.846 662.224 602.46 662.104 602.65C661.865 602.744 656.973 605.959 651.006 609.741C645.158 613.522 639.669 616.453 638.834 616.264C637.998 616.17 626.9 602.366 590.98 555.471L600.765 549.136C606.135 545.638 610.551 542.801 610.789 542.801V542.801ZM143.826 554.336C148.719 554.62 153.611 555.66 159.101 557.74C163.516 559.347 167.097 561.143 167.097 561.616C167.097 562.183 166.022 564.263 164.71 566.343C162.442 570.031 162.323 570.125 158.146 569.18C155.163 568.518 153.015 568.613 150.151 569.464C146.929 570.504 144.065 573.624 133.324 587.711C121.271 603.595 120.555 604.919 120.794 609.079C121.152 612.388 121.987 614.09 127.954 618.817L125.448 622.883C124.135 625.057 122.345 626.854 121.51 626.948C120.675 626.948 116.498 624.395 112.202 621.37C107.19 617.777 103.132 613.712 100.387 609.741C97.2847 605.013 96.33 602.555 96.33 598.489C96.33 594.897 97.1653 591.966 99.0747 589.035C100.626 586.671 105.877 580.147 110.77 574.38C115.663 568.707 121.391 562.562 123.419 560.86C125.448 559.063 129.267 556.794 131.892 555.849C135.472 554.431 138.575 554.052 143.826 554.336V554.336ZM651.603 554.998C651.961 554.998 653.393 556.227 654.944 557.834C656.376 559.442 657.45 561.238 657.211 561.9C656.973 562.562 653.631 565.303 642.652 572.962L636.089 565.398L643.607 560.198C647.664 557.361 651.364 554.998 651.603 554.998V554.998ZM171.751 563.507C172.109 563.507 175.211 565.114 178.433 567.194C181.775 569.18 186.071 572.773 188.1 575.042C190.128 577.311 192.396 580.431 193.231 581.944C194.186 583.646 194.544 587.427 194.305 591.398C193.947 597.071 192.635 600.191 185.594 613.144C180.104 623.166 175.927 629.501 173.183 631.865C170.796 633.85 167.097 635.93 164.71 636.497C162.442 637.065 156.834 637.348 152.179 637.065C145.974 636.781 141.678 635.836 135.114 633.472C130.341 631.675 126.522 630.068 126.522 629.974C126.522 629.785 127.715 627.799 129.267 625.435C131.415 621.843 132.37 621.181 134.279 621.748C135.592 622.032 138.575 622.504 140.842 622.788C143.349 623.072 145.974 622.693 147.406 621.937C148.719 621.181 154.805 612.672 160.891 602.933C169.245 589.507 171.87 584.402 171.87 581.471C171.87 578.729 171.035 576.933 165.306 571.827L168.171 567.667C169.722 565.398 171.273 563.507 171.751 563.507V563.507ZM575.705 563.602C576.301 563.507 586.325 577.595 597.782 594.897C609.357 612.104 619.024 626.475 619.143 626.759C619.382 627.043 615.086 629.501 599.691 637.065L558.52 571.071L566.635 567.383C571.05 565.303 575.108 563.602 575.705 563.602V563.602ZM554.821 573.907C555.537 573.907 560.429 581.093 575.347 605.58L575.227 615.508C575.227 620.992 574.869 628.934 573.437 640.847L564.726 634.606C557.207 629.217 556.014 627.894 556.611 625.908C556.969 624.584 556.73 613.522 556.133 601.326C555.537 589.129 554.701 577.973 554.224 576.555C553.866 574.947 553.985 573.907 554.821 573.907V573.907ZM685.017 574.853C685.375 574.853 687.165 576.271 692.177 581.471L680.84 589.791C674.515 594.329 668.668 598.395 667.713 598.773C666.52 599.246 665.088 598.395 660.195 592.344L666.281 588.089C669.742 585.82 675.231 581.849 678.453 579.391C681.795 576.933 684.778 574.853 685.017 574.853V574.853ZM233.09 591.02C236.192 590.926 241.324 591.398 244.427 592.06C247.529 592.628 250.513 593.384 250.99 593.668C251.467 593.951 251.229 596.315 250.393 598.773C248.961 603.217 248.842 603.217 244.069 603.217C240.488 603.217 238.579 603.784 236.073 605.864C233.686 607.755 230.942 613.05 225.691 625.908C221.753 635.552 218.531 644.818 218.531 646.519C218.411 648.221 219.008 650.396 219.605 651.436C220.321 652.476 222.588 654.272 228.793 657.581L227.242 662.12C226.287 664.578 224.975 666.563 224.139 666.563C223.304 666.658 219.366 665.334 215.428 663.821C211.49 662.214 205.881 659.283 202.897 657.298C200.033 655.312 196.334 651.814 194.902 649.545C193.112 646.708 192.157 643.588 192.157 640.09C192.157 635.93 193.589 631.865 199.437 619.763C203.494 611.442 207.671 603.406 208.984 601.799C210.177 600.286 212.683 597.828 214.473 596.409C216.382 594.991 219.963 593.195 222.588 592.438C225.213 591.682 229.987 591.02 233.09 591.02ZM510.786 593.951C512.456 595.653 520.332 602.839 528.328 609.835C536.204 616.832 549.809 628.177 558.52 634.89C567.112 641.697 573.795 647.465 573.199 647.748C572.721 648.127 568.664 649.639 556.133 654.272L520.571 626.381L513.411 609.362C509.473 600.002 506.609 592.06 506.967 591.588C507.444 591.209 509.115 592.249 510.786 593.951V593.951ZM502.551 593.195C503.029 593.762 509.353 609.173 516.633 627.326C523.913 645.574 529.879 660.985 529.879 661.647C529.879 662.309 525.225 663.916 508.637 667.982L506.012 660.418C504.58 656.258 499.21 640.374 494.078 625.152C489.066 609.835 484.889 597.166 485.009 597.071C485.128 596.882 488.828 595.653 493.362 594.424C499.21 592.817 501.955 592.438 502.551 593.195V593.195ZM256.718 594.708C257.315 594.708 260.895 595.842 264.714 597.26C268.413 598.679 273.903 601.515 276.767 603.69C279.75 605.77 283.092 609.173 284.285 611.253C285.478 613.428 286.433 617.304 286.433 620.235C286.433 623.072 284.882 632.054 283.092 640.09C281.182 648.127 278.676 656.447 277.602 658.527C276.528 660.607 274.141 663.538 272.351 664.956C270.561 666.374 266.742 668.171 263.759 668.927C260.895 669.589 256.002 670.44 253.019 670.723C250.155 671.007 244.069 670.723 239.772 670.062C235.357 669.494 231.419 668.643 230.822 668.171C230.226 667.792 230.584 665.429 231.658 662.971C233.448 658.621 233.567 658.527 238.221 658.81C241.443 659.094 243.83 658.621 245.859 657.392C247.529 656.352 249.558 654.272 250.393 652.759C251.109 651.247 254.212 642.17 257.315 632.526C262.088 617.304 262.566 614.562 261.492 611.537C260.656 609.173 258.986 607.377 256.599 606.337C254.689 605.391 253.019 604.351 253.019 603.973C253.019 603.595 253.615 601.326 254.331 598.962C255.047 596.599 256.122 594.708 256.718 594.708ZM442.525 605.202C445.27 605.202 446.583 605.58 447.06 606.81C447.418 607.661 451.833 614.373 456.845 621.653C461.977 628.839 472.598 642.927 480.593 652.854C488.589 662.687 495.033 670.913 494.914 671.007C494.794 671.196 489.066 672.331 482.145 673.654C475.343 675.073 469.018 675.923 468.182 675.64C467.347 675.356 462.932 669.211 458.397 662.12C453.981 654.934 446.463 642.454 441.928 634.417C437.274 626.381 432.023 617.021 430.114 613.712C428.205 610.402 427.011 607.471 427.25 607.377C427.608 607.188 430.353 606.715 433.217 606.242C436.2 605.77 440.377 605.297 442.525 605.202V605.202ZM342.521 607.944V613.144C342.521 617.115 342.163 618.344 340.731 618.344C339.776 618.344 337.032 619.101 334.764 620.046C331.661 621.275 329.991 622.693 328.797 625.435C327.962 627.515 326.172 637.443 324.979 647.465C323.069 663.821 323.069 665.996 324.621 668.265C325.695 669.683 328.678 671.669 331.423 672.709C336.435 674.6 336.554 674.694 336.674 685L329.991 684.338C326.411 683.96 320.325 682.636 316.625 681.502C312.806 680.367 307.675 677.909 305.169 676.113C302.543 674.222 299.441 671.102 298.247 669.211C296.815 666.942 295.98 663.632 295.98 660.229C295.98 657.203 297.293 648.41 298.844 640.563C300.395 632.81 302.782 624.49 304.095 622.126C305.288 619.763 307.914 616.642 309.823 615.224C311.732 613.712 314.835 611.915 316.625 611.159C318.415 610.497 321.876 609.457 324.382 608.984C326.769 608.511 331.9 608.133 342.521 607.944V607.944ZM352.426 608.701C355.171 608.984 360.183 609.93 363.405 610.875C366.746 611.821 371.52 614.09 374.145 615.792C376.771 617.588 379.873 620.708 381.067 622.883C382.141 625.057 383.573 629.217 384.886 637.254H359.825L358.99 631.392C358.512 627.988 357.2 624.395 356.006 623.072C354.693 621.748 352.068 620.046 349.92 619.29C347.653 618.439 346.221 617.21 346.101 615.981C346.101 614.941 346.34 612.766 346.698 611.159C347.295 608.228 347.414 608.228 352.426 608.701V608.701ZM423.431 609.362C424.028 609.93 427.25 615.602 437.036 633.945L435.723 642.454C435.007 647.181 434.172 652.192 433.217 656.163L449.327 655.029L451.117 658.054C452.788 660.701 452.788 661.174 451.117 661.836C450.163 662.309 446.463 662.971 442.764 663.254C439.184 663.632 435.484 664.011 434.41 664.2C433.217 664.483 431.785 667.603 430.233 673.087C427.966 681.218 427.727 681.596 424.267 682.164C422.357 682.447 415.674 683.015 409.35 683.298C398.49 683.96 398.132 683.865 399.087 682.164C399.564 681.124 402.905 672.425 406.366 662.781C409.827 653.138 414.958 637.443 417.584 627.799C420.328 618.155 422.477 609.93 422.477 609.362C422.477 608.732 422.795 608.732 423.431 609.362V609.362Z" fill="#1C1614"/>
</svg>
