<svg width="623" height="578" viewBox="0 0 623 578" fill="none" xmlns="http://www.w3.org/2000/svg">
<path fill-rule="evenodd" clip-rule="evenodd" d="M224.291 434.791C222.142 436.633 215.183 442.876 208.837 448.607C202.595 454.441 197.375 459.967 197.375 460.888C197.375 461.912 200.445 470.099 204.13 479.105C207.916 488.112 211.396 495.992 212.112 496.606C212.727 497.323 221.016 500.393 230.637 503.566C240.257 506.738 248.752 509.297 249.57 509.297C250.389 509.399 257.348 502.849 264.922 494.764C267.118 492.419 269.28 490.118 271.27 487.999C276.143 482.812 279.986 478.72 280.785 477.775L282.832 475.421C272.495 450.142 268.811 442.466 267.992 442.159C267.173 441.852 259.088 439.294 250.082 436.53C241.076 433.767 232.479 431.516 230.944 431.516C229.306 431.516 226.543 432.846 224.291 434.791ZM228.692 439.805C227.566 440.317 226.748 441.75 226.85 442.773C226.952 443.899 227.771 445.025 228.59 445.332C229.409 445.639 231.353 445.844 232.888 445.844C234.526 445.844 236.573 445.332 237.596 444.616C238.722 443.797 239.336 442.364 239.131 441.238C238.927 439.601 237.903 439.089 234.73 438.987C232.479 438.782 229.716 439.191 228.692 439.805ZM248.035 450.552C245.988 449.119 245.988 449.016 247.933 446.97C249.366 445.332 251.105 444.82 254.79 444.82C258.679 444.82 260.009 445.23 260.521 446.56C260.93 447.788 260.316 449.016 258.679 450.245C257.348 451.268 254.79 452.087 253.152 452.087C251.515 451.984 249.161 451.37 248.035 450.552ZM218.253 448.812C216.513 450.654 216.513 451.063 217.844 452.496C218.765 453.417 221.119 454.134 223.473 454.134C225.929 454.134 228.078 453.52 228.795 452.496C229.511 451.677 230.023 450.142 229.818 449.119C229.613 447.788 228.487 447.277 224.905 447.072C221.323 446.867 219.788 447.277 218.253 448.812ZM238.005 454.952C239.029 454.031 240.564 453.008 241.383 452.701C242.202 452.394 243.123 452.087 243.43 452.087C243.737 451.984 245.477 452.394 247.216 453.008C249.059 453.52 250.594 454.748 250.594 455.566C250.594 456.385 249.57 457.818 248.24 458.637C247.012 459.455 244.555 460.172 242.918 460.172C241.28 460.274 239.029 459.455 238.005 458.432C236.368 456.692 236.368 456.488 238.005 454.952ZM208.223 456.18C207.098 456.692 206.279 458.125 206.381 459.148C206.484 460.377 207.712 461.605 209.349 462.116C210.987 462.628 213.545 462.73 215.183 462.423C216.82 462.014 218.662 460.991 219.277 459.967C220.095 458.739 220.095 457.92 218.867 456.59C217.946 455.669 215.797 454.952 213.75 455.055C211.805 455.055 209.247 455.566 208.223 456.18ZM266.355 462.014C265.741 462.423 264.615 464.163 264.001 465.801C263.284 467.541 262.977 469.895 263.284 471.123C263.591 472.453 264.717 473.477 265.638 473.477C266.662 473.579 267.992 472.965 268.709 472.248C269.425 471.532 270.244 469.383 270.551 467.643C270.858 465.596 270.551 463.652 269.834 462.73C269.118 461.809 268.299 461.093 267.992 461.195C267.685 461.195 266.969 461.605 266.355 462.014ZM214.262 487.805C212.829 486.065 211.703 484.018 211.703 483.199C211.703 482.176 212.727 481.664 214.773 481.664C216.923 481.664 218.56 482.585 220.402 484.734C221.835 486.372 222.961 488.521 222.961 489.34C222.961 490.363 221.937 490.875 219.891 490.875C217.741 490.875 216.104 489.954 214.262 487.805ZM250.798 492.922C250.696 490.875 251.208 488.316 252.231 486.986C253.152 485.655 254.585 484.734 255.404 484.939C256.325 485.144 257.348 486.167 257.758 487.293C258.167 488.419 257.962 490.977 257.348 492.922C256.427 495.788 255.711 496.504 253.664 496.504C251.515 496.504 251.105 495.992 250.798 492.922ZM226.85 465.289C226.748 464.266 227.566 462.833 228.692 462.321C229.716 461.707 232.581 461.195 234.935 461.195C237.391 461.195 239.541 461.605 239.848 462.219C240.155 462.73 240.155 464.163 239.848 465.289C239.541 466.517 237.903 467.745 235.959 468.359C233.707 469.076 231.762 469.076 229.818 468.359C228.283 467.745 226.952 466.517 226.85 465.289Z" fill="#1B1514"/>
<path fill-rule="evenodd" clip-rule="evenodd" d="M377.314 421.269C368.417 423.558 361.126 425.432 359.795 425.682C358.157 426.091 356.417 427.627 355.496 429.469C354.063 432.334 354.268 433.562 358.055 448.709C358.461 450.297 358.904 452.032 359.368 453.851C361.478 462.115 364.034 472.127 365.628 478.082C368.289 488.316 369.62 491.796 371.564 493.229C372.792 494.252 374.839 495.071 375.965 494.969C377.091 494.969 388.86 492.205 402.063 488.828C416.493 485.144 426.83 481.971 427.956 480.845C428.979 479.924 430.002 478.389 430.309 477.57C430.514 476.752 427.546 462.935 423.555 446.867C417.721 423.226 415.879 417.392 414.037 415.857C412.706 414.834 410.25 414.117 408.203 414.117C406.259 414.22 395.206 416.676 383.641 419.644C381.482 420.198 379.356 420.744 377.314 421.269ZM386.711 427.319C383.027 428.241 377.295 430.594 373.918 432.437C370.541 434.279 367.573 436.019 367.266 436.223C366.959 436.428 367.88 437.452 369.313 438.577C370.683 439.619 371.319 440.102 371.882 440.028C372.37 439.964 372.803 439.48 373.611 438.577C374.634 437.554 377.295 435.507 379.547 434.074C381.798 432.641 387.018 430.185 391.112 428.548C395.717 426.603 397.559 425.477 395.922 425.477C394.489 425.477 390.395 426.296 386.711 427.319ZM381.491 453.11C381.491 450.961 382.413 449.323 384.664 447.481C386.506 446.048 388.553 444.82 389.372 444.82C390.191 444.82 392.033 445.434 393.568 446.253C395.206 446.969 396.741 448.402 397.15 449.323C397.662 450.244 397.969 452.087 397.969 453.519C397.969 454.952 397.662 456.794 397.15 457.716C396.741 458.637 395.206 460.069 393.67 460.786C392.033 461.605 390.088 462.219 389.27 462.219C388.451 462.219 386.302 460.786 384.664 459.148C382.72 457.204 381.594 454.952 381.491 453.11ZM401.039 469.383C401.141 467.438 402.165 465.187 403.598 463.754C404.928 462.321 407.282 461.195 408.715 461.195C410.148 461.195 411.99 461.502 412.911 461.912C413.832 462.423 415.265 463.959 415.981 465.494C416.8 467.131 417.209 469.792 416.902 471.43C416.595 473.067 415.367 475.216 414.139 476.035C412.809 476.854 410.557 477.57 409.022 477.57C407.384 477.57 405.031 476.444 403.598 475.012C401.96 473.374 401.039 471.327 401.039 469.383Z" fill="#1B1514"/>
<path d="M84.7969 268.584C103.116 253.642 121.948 238.188 126.758 234.197C131.568 230.205 135.866 227.033 136.48 227.238C137.095 227.442 139.039 233.89 140.779 241.77C142.621 249.548 144.156 256.713 144.156 257.531C144.156 258.555 142.007 259.783 138.323 261.011C135.048 262.034 127.986 265.207 122.664 267.868C117.342 270.529 109.052 275.339 104.242 278.614C99.432 281.787 91.3469 287.723 86.332 291.816C81.3172 295.91 75.9953 300.516 74.5625 301.948C72.0039 304.609 71.7992 304.712 57.3687 304.609C49.3859 304.609 42.7336 304.2 42.6312 303.688C42.5289 303.177 44.4734 301.232 46.9297 299.288C49.4883 297.343 66.4773 283.527 84.7969 268.584Z" fill="#1B1514"/>
<path d="M481.993 243.203C483.631 235.016 485.268 227.749 485.677 226.93C486.189 225.907 486.906 226.112 489.157 227.954C490.692 229.284 498.368 235.732 506.146 242.18C513.924 248.627 528.355 260.602 538.18 268.789C548.005 276.977 561.309 287.825 579.322 302.051L551.484 302.563L543.502 295.91C539.203 292.226 530.504 285.778 524.363 281.582C518.12 277.386 508.705 271.757 503.383 268.994C498.061 266.128 490.692 262.853 487.008 261.523C483.323 260.295 480.048 258.964 479.639 258.657C479.23 258.35 480.356 251.391 481.993 243.203Z" fill="#1B1514"/>
<path d="M274.235 283.424C272.905 282.401 271.574 280.968 271.267 280.354C271.063 279.638 271.37 279.023 271.984 279.023C272.598 279.023 275.566 280.252 283.855 284.652L280.273 284.959C278.022 285.164 275.77 284.55 274.235 283.424Z" fill="#1B1514"/>
<path d="M291.941 285.676C291.122 282.912 290.508 279.637 290.508 278.512C290.508 276.977 291.941 278.102 296.341 283.015C299.616 286.597 304.222 290.588 306.678 291.919C310.26 293.966 311.386 294.17 313.33 293.147C314.559 292.533 317.117 290.793 319.062 289.36C320.904 287.927 324.179 284.55 326.226 281.787C328.273 279.126 330.217 276.977 330.729 276.977C331.138 276.977 331.138 278.716 330.831 280.866C330.524 282.913 328.784 287.416 327.045 290.691C325.202 294.068 321.723 298.571 319.164 300.72C316.605 302.87 314.252 304.712 313.842 304.609C313.33 304.609 313.023 303.893 313.023 303.074C313.023 302.255 312.512 301.539 312 301.539C311.488 301.539 310.772 302.255 310.465 303.074C310.055 304.302 309.032 304.098 304.631 301.846C301.663 300.209 298.081 297.138 296.444 294.887C294.806 292.635 292.759 288.541 291.941 285.676Z" fill="#1B1514"/>
<path d="M361.023 211.988C362.148 207.485 363.377 202.47 363.786 200.73L364.502 197.66L365.423 201.754C365.935 204.005 366.14 210.248 365.833 215.57C365.526 221.404 364.298 228.875 362.66 234.299C361.227 239.212 358.976 245.864 357.543 249.139C356.11 252.312 353.449 257.429 351.607 260.295C348.537 265.309 347.616 266.026 338.098 270.427C332.469 272.985 325.202 276.67 322.03 278.614C318.755 280.559 315.889 281.991 315.582 281.889C315.377 281.684 318.345 277.181 322.337 271.859C326.328 266.537 332.264 259.169 335.539 255.484C338.712 251.8 343.727 245.864 346.49 242.18C349.253 238.495 353.245 232.048 355.291 227.852C357.338 223.655 359.999 216.491 361.023 211.988Z" fill="#1B1514"/>
<path d="M251.72 200.628C254.176 198.377 257.553 195.511 259.293 194.283C260.93 193.055 262.67 192.031 263.08 192.031C263.387 192.031 262.568 193.566 261.135 195.409C258.679 198.581 258.679 198.888 259.907 205.848C260.521 209.839 262.261 216.287 263.694 220.176C265.024 224.167 267.48 229.694 269.118 232.457C270.653 235.323 274.338 240.645 277.408 244.329C280.376 248.013 286.312 255.177 290.713 260.192C295.011 265.207 300.435 271.962 302.687 275.237C305.041 278.409 306.78 281.275 306.576 281.582C306.473 281.889 304.529 280.866 302.277 279.433C300.026 277.898 292.657 274.009 285.902 270.836C273.621 264.9 273.621 264.9 269.834 258.452C267.788 254.87 264.922 249.344 263.591 246.273C262.261 243.203 260.316 237.472 259.293 233.48C258.27 229.591 257.144 220.995 256.12 202.777L253.664 210.453C251.617 216.594 251.105 220.176 251.208 228.363C251.208 233.992 251.822 240.645 252.538 243.203C253.255 245.762 254.073 248.32 254.278 248.832C254.585 249.446 253.459 250.265 251.924 250.674C250.287 251.186 247.114 252.926 244.658 254.563C242.304 256.201 238.927 259.476 237.187 261.932C235.447 264.286 233.605 268.175 233.093 270.631C232.581 272.985 231.66 274.93 231.148 274.93C230.534 274.93 229.613 271.552 228.999 267.561C228.283 263.058 228.078 256.61 228.488 251.391C228.897 246.58 230.33 238.905 231.763 234.299C233.093 229.591 235.14 223.86 236.368 221.506C237.596 219.05 240.564 214.342 242.918 210.965C245.374 207.587 249.366 202.982 251.72 200.628Z" fill="#1B1514"/>
<path d="M309.544 181.285C309.851 179.648 310.363 177.908 310.67 177.498C310.874 176.987 311.284 176.68 311.693 176.68C312 176.68 313.74 181.49 318.652 198.172H325.509C329.296 198.172 332.469 198.479 332.469 198.991C332.469 199.4 330.422 202.573 327.863 206.155C325.305 209.634 323.463 212.807 323.667 213.319C323.872 213.728 325.816 214.445 327.966 214.854C330.115 215.366 332.366 215.98 332.98 216.287C333.492 216.594 330.729 219.971 319.471 230.41L316.094 245.25C314.252 253.438 312.512 260.397 312.102 260.806C311.795 261.216 309.646 254.154 303.301 228.773L296.444 222.939C292.759 219.766 289.791 216.901 289.894 216.594C290.098 216.287 292.248 215.673 294.704 215.263C297.16 214.752 299.514 214.24 299.923 213.933C300.333 213.728 298.491 210.453 295.625 206.666C292.862 202.777 290.508 199.4 290.508 198.991C290.508 198.479 293.68 198.172 304.836 198.172L306.78 191.315C307.906 187.426 309.134 183.025 309.544 181.285Z" fill="#1B1514"/>
<path d="M474.01 176.373C482.607 175.963 498.061 174.223 508.5 172.688C518.939 171.051 528.15 169.72 529.071 169.618C530.402 169.516 530.095 170.334 527.945 173.302C526.41 175.452 524.466 177.805 523.749 178.42C522.93 179.136 517.711 180.364 512.082 181.285C506.453 182.104 494.274 184.151 468.074 188.859L464.083 184.56C461.934 182.206 459.784 179.545 459.375 178.727C458.659 177.396 460.705 177.089 474.01 176.373Z" fill="#1B1514"/>
<path fill-rule="evenodd" clip-rule="evenodd" d="M292.452 6.07266C288.256 9.04063 281.399 14.1578 277.203 17.4328C273.007 20.8102 263.591 28.6906 256.223 34.9336C248.956 41.2789 237.903 51.6156 231.763 58.0633C225.622 64.5109 216.309 75.0523 211.191 81.5C205.972 87.9477 199.012 97.3633 195.635 102.48C192.258 107.495 188.266 113.841 186.834 116.502L184.07 121.414C189.802 136.049 194.407 146.079 197.989 153.141C201.571 160.202 207.712 170.948 211.805 177.191C215.797 183.332 221.119 191.11 223.575 194.283C226.031 197.558 228.078 200.423 228.078 200.73C228.078 201.038 226.645 203.289 225.008 205.848C223.37 208.406 221.733 210.453 221.426 210.453C221.119 210.453 218.048 208.202 214.569 205.438C210.987 202.675 203.516 195.716 197.887 189.78C192.258 183.946 184.684 174.94 181 169.72L174.348 160.305C158.484 160.305 146.305 159.793 136.992 159.281C127.679 158.667 111.099 157.03 100.148 155.597C89.1977 154.266 78.9633 153.141 77.4281 153.141C75.6883 153.141 73.8461 154.062 72.8227 155.495C71.7992 156.723 69.0359 163.58 66.682 170.539C64.3281 177.601 61.1555 187.938 59.7227 193.566C58.2898 199.195 56.243 208.611 55.2195 214.547C54.0938 220.483 52.7633 230.82 52.0469 237.574C51.6871 241.531 51.2923 246.015 50.9652 249.73L50.9647 249.735C50.7337 252.359 50.5365 254.598 50.4094 255.996L49.8977 262.137C14.8961 289.872 3.84297 299.083 2.71719 300.516C1.69375 301.948 0.875 304.2 0.875 305.633C0.875 307.066 2.71719 315.765 4.96875 325.078C7.22031 334.391 10.7 347.082 12.7469 353.223C14.7938 359.363 18.7852 370.519 21.6508 377.785C24.4141 385.052 30.9641 399.38 36.1836 409.512C41.3008 419.644 48.4648 432.744 52.0469 438.475C55.7313 444.309 63.2023 455.157 68.8313 462.526C74.3578 469.997 82.1359 479.924 86.2297 484.632C90.2211 489.442 98.818 498.653 105.266 505.203C111.713 511.753 121.641 521.271 127.27 526.184C132.898 531.096 142.826 539.181 149.273 543.991C155.721 548.904 162.169 553.509 163.602 554.226C165.034 554.942 163.602 553.305 160.531 550.644C157.461 547.983 150.092 540.921 144.156 534.985C138.22 529.049 129.009 518.815 123.79 512.367C118.468 505.92 111.099 495.992 107.312 490.363C103.526 484.734 97.7945 475.523 94.5195 469.895C91.1422 464.266 85.2063 452.701 81.1125 444.309C77.1211 435.814 72.0039 424.352 69.957 418.723C67.8078 413.094 64.5328 403.371 62.6906 397.23C60.7461 391.09 57.9828 380.446 56.55 373.691C54.6055 364.583 53.6844 357.214 53.3773 345.547C52.968 336.029 53.275 327.637 53.8891 324.566C54.5031 321.701 55.2195 318.733 55.6289 317.914C56.0383 316.686 54.7078 316.174 48.2602 315.56C47.7637 315.502 47.2646 315.445 46.768 315.387C42.8632 314.936 39.1154 314.502 38.0258 314.23C35.8766 313.82 35.6719 314.23 35.6719 317.607C35.6719 319.756 36.3883 326.818 37.207 333.266C38.0258 339.713 39.4586 348.924 40.2773 353.734C41.1984 358.545 43.45 368.677 45.3945 376.25C47.3391 383.823 50.7164 395.593 52.968 402.348C55.3219 409.102 56.9594 414.834 56.6523 415.141C56.3453 415.448 55.7312 414.527 55.2195 413.094C54.7078 411.661 53.275 407.977 52.0469 404.906C50.8187 401.836 47.7484 393.239 45.1898 385.973C42.7336 378.706 39.1516 366.63 37.207 359.363C35.2625 352.097 32.8062 340.737 31.6805 334.289C30.5547 327.841 29.4289 320.473 29.1219 317.914C28.7125 314.639 27.8937 312.797 26.2562 311.671C24.9258 310.75 20.9344 308.908 17.25 307.373L10.5977 304.814C17.7617 302.972 24.2094 301.13 29.5312 299.492L39.2539 296.524C72.618 269.198 91.4492 253.438 102.707 243.817C113.965 234.299 126.553 223.451 130.647 219.766C136.89 214.24 138.527 213.216 139.858 214.138C140.587 214.623 144.584 216.84 149.415 219.518C150.689 220.225 152.022 220.963 153.367 221.711C155.254 222.759 157.247 223.861 159.191 224.935C163.887 227.53 168.299 229.968 170.254 231.127C173.12 232.662 174.962 233.992 174.348 233.992C173.836 233.992 166.877 231.843 158.996 229.387C151.116 226.828 144.054 224.781 143.44 224.781C142.621 224.781 145.282 231.024 149.58 239.519L156.949 254.256C175.166 256.917 187.243 259.373 195.43 261.42C203.72 263.467 210.68 265.412 210.987 265.719C211.294 266.026 211.703 268.175 211.805 270.631L212.215 275.032C196.352 281.07 185.298 286.085 177.418 290.077C169.538 294.068 158.484 300.209 152.855 303.791C147.227 307.373 138.732 313.309 133.922 316.891C129.112 320.575 121.334 327.023 116.626 331.219C111.918 335.415 106.698 340.839 105.061 343.193C103.526 345.649 102.195 348.72 102.195 350.152C102.195 351.585 105.675 362.229 109.973 373.896C114.272 385.666 121.334 405.52 125.734 418.211C130.033 430.902 135.355 445.127 137.402 449.938C139.448 454.748 143.542 462.526 146.408 467.336C149.273 472.146 154.8 480.436 158.791 485.758C162.783 491.08 171.584 501.212 178.441 508.171C185.196 515.13 195.533 524.751 201.469 529.459C207.405 534.269 218.663 542.456 226.543 547.573C234.423 552.793 245.067 559.445 250.082 562.209C255.199 565.074 263.182 569.27 267.992 571.727C272.802 574.08 277.715 576.434 279.045 576.946C280.273 577.458 281.297 577.662 281.297 577.355C281.297 577.048 276.384 573.876 270.346 570.294C264.205 566.712 253.766 559.65 247.012 554.533C240.257 549.518 229.716 540.614 223.575 534.781C217.434 528.947 208.735 519.736 204.334 514.414C199.831 509.092 192.463 499.165 187.959 492.41C183.456 485.655 176.292 473.17 172.198 464.777C168.105 456.283 162.373 442.466 159.61 434.074C156.745 425.58 153.47 413.913 152.241 407.977C150.706 400.608 149.785 391.704 149.376 379.525L148.762 361.82C121.027 352.609 112.02 349.436 110.895 348.822C108.95 347.798 109.052 347.696 111.918 347.082C113.658 346.775 117.649 345.854 120.924 345.035C124.097 344.216 128.702 342.272 131.159 340.737C133.512 339.304 144.668 331.116 155.926 322.724L176.395 307.475L136.48 347.287C159.098 356.293 165.955 358.852 166.467 358.852C166.877 358.852 168.412 356.6 169.845 353.939C171.277 351.278 175.985 344.523 180.181 338.895C184.48 333.266 191.644 325.078 196.249 320.677C200.752 316.379 208.838 310.034 214.057 306.554L223.473 300.311C228.18 306.452 231.967 310.75 234.833 313.82C237.801 316.891 242.918 321.496 246.398 324.055C252.231 328.353 252.641 328.865 252.027 331.73C251.617 333.368 251.413 337.564 251.413 340.941C251.515 344.319 252.027 349.436 252.743 352.199C253.357 355.065 255.404 360.489 257.246 364.48C259.191 368.472 262.875 374.408 265.638 377.683C268.299 381.06 273.826 386.587 277.715 389.862C281.706 393.137 288.563 398.049 293.066 400.71C297.57 403.473 302.38 405.93 303.812 406.441C305.655 406.953 303.301 403.985 296.034 396.616C290.405 390.783 283.855 383.414 281.604 380.344C279.25 377.273 275.77 371.542 273.826 367.551C271.881 363.559 269.732 358.34 269.016 355.781C268.299 353.223 267.685 348.413 267.685 345.035C267.583 341.658 267.788 337.257 268.197 335.312C268.606 333.368 269.834 330.502 271.062 328.865C272.7 326.613 273.928 326.102 277.203 326.102C279.455 326.102 282.013 326.818 282.832 327.637C283.651 328.455 284.367 329.479 284.367 329.991C284.367 330.4 283.651 332.549 282.73 334.801C281.604 337.564 281.195 340.941 281.502 345.547C281.706 350.05 282.73 354.041 284.572 357.828C286.107 360.898 289.791 366.63 292.759 370.519C293.503 371.493 294.291 372.524 295.079 373.556C297.438 376.644 299.796 379.731 300.947 381.265C302.482 383.414 304.734 389.043 306.269 394.672C307.702 399.994 309.441 404.702 310.158 405.111C310.874 405.52 312.307 405.93 313.33 405.93C314.559 405.93 315.275 404.804 315.684 402.143C315.978 400.086 316.647 396.341 317.153 393.511L317.22 393.137C317.834 390.373 319.062 386.177 320.085 383.926C321.109 381.674 325.714 374.101 330.32 367.039C334.925 359.977 339.223 352.404 339.838 350.152C340.349 347.901 340.656 344.216 340.452 341.965C340.145 339.713 339.223 336.336 338.302 334.596C337.177 332.345 336.87 330.605 337.484 329.479C337.893 328.455 339.121 327.33 340.042 326.92C340.963 326.409 343.317 326.102 345.262 326.102C347.513 326.102 349.663 326.92 350.891 328.148C352.016 329.274 353.347 331.935 353.961 334.084C354.473 336.131 354.984 340.43 354.984 343.5C354.984 346.57 354.268 351.892 353.449 355.27C352.63 358.647 350.277 364.583 348.434 368.574C346.49 372.566 342.294 379.218 339.121 383.414C335.846 387.61 329.705 394.672 325.407 399.073C321.109 403.371 318.141 406.953 318.652 406.953C319.164 406.953 323.565 404.702 328.375 401.836C333.185 398.97 340.247 393.955 344.136 390.783C348.025 387.61 353.449 382.186 356.213 378.809C358.976 375.431 363.07 368.984 365.219 364.48C367.368 359.977 369.722 353.325 370.438 349.641C371.052 345.956 371.359 340.43 371.052 337.359C370.745 334.289 370.234 331.014 369.927 330.195C369.517 329.172 370.95 327.637 374.225 325.385C376.886 323.543 381.594 319.654 384.766 316.686C387.837 313.718 392.545 308.703 395.103 305.633L399.811 300.004C413.832 309.522 422.429 316.584 428.058 322.008C433.584 327.33 441.158 335.824 444.945 340.941C448.731 346.059 453.132 352.302 454.872 354.963C456.816 358.135 458.352 359.67 459.375 359.363C460.108 359.18 465.185 356.948 471.085 354.353L471.087 354.352L471.088 354.352L471.166 354.318L471.348 354.238C471.956 353.971 472.571 353.7 473.191 353.427C479.946 350.357 485.268 347.491 485.063 346.98C484.756 346.468 476.671 338.485 467.153 329.172C457.533 319.961 449.243 311.671 448.731 310.75C448.22 309.931 449.345 310.443 451.29 311.876C451.624 312.122 452.157 312.516 452.855 313.032L452.993 313.134L453.003 313.141L453.014 313.149L453.025 313.158C456.461 315.696 463.547 320.933 470.633 326.102C479.332 332.447 488.543 338.997 491.102 340.532C493.66 342.067 498.47 344.114 501.848 344.933C505.225 345.854 509.523 346.57 511.366 346.57C513.105 346.57 514.641 347.082 514.641 347.594C514.641 348.105 510.854 349.948 506.248 351.585C501.541 353.223 492.432 356.191 485.984 358.237L474.215 361.922C473.089 393.648 472.168 402.348 470.633 409.512C469.507 415.141 466.232 426.398 463.571 434.586C460.808 442.773 455.895 455.157 452.416 462.219C449.038 469.28 443.614 479.105 440.441 484.223C437.269 489.34 431.538 497.527 427.751 502.645C423.964 507.762 416.902 516.256 412.092 521.578C407.384 526.9 398.788 535.395 392.954 540.512C387.223 545.629 378.421 552.691 373.611 556.375C368.698 560.059 359.999 566.098 354.166 569.68C348.434 573.364 343.931 576.434 344.238 576.639C344.545 576.741 350.584 573.876 357.85 570.294C365.014 566.712 377.091 559.957 384.664 555.352C392.237 550.746 403.086 543.582 408.715 539.488C414.344 535.395 424.169 527.514 430.616 521.987C437.064 516.359 445.866 507.966 450.164 503.156C454.36 498.346 459.989 491.694 462.548 488.316C465.106 484.939 469.507 478.696 472.373 474.5C475.238 470.304 479.844 462.219 482.607 456.59C485.473 450.961 489.873 440.624 492.534 433.562C494.266 428.784 498.2 417.632 502.592 405.18L502.598 405.163C504.695 399.219 506.896 392.979 509.012 386.996C515.459 368.472 520.781 351.995 520.781 350.357C520.781 348.822 519.246 345.445 517.506 342.886C515.664 340.327 511.366 335.824 507.988 332.856C504.611 329.888 497.959 324.464 493.148 320.78C488.338 317.095 479.844 311.057 474.215 307.373C468.586 303.688 459.375 298.162 453.746 294.989C448.117 291.816 437.985 286.802 431.23 283.731C424.476 280.763 416.902 277.591 414.446 276.874L410.045 275.441C411.069 268.277 411.478 266.128 411.58 265.923C411.683 265.821 418.949 263.877 427.648 261.625C436.348 259.373 448.629 256.712 454.974 255.791L466.334 253.949C476.876 231.741 479.741 225.191 479.639 224.986C479.434 224.781 471.963 227.033 462.957 229.898C453.951 232.764 446.48 235.016 446.377 234.811C446.275 234.606 449.959 232.355 454.565 229.796C459.17 227.237 467.87 222.325 474.01 218.845C484.142 213.012 485.063 212.602 486.291 214.342C487.11 215.263 494.377 221.813 502.462 228.875C510.547 235.937 522.726 246.376 529.48 252.005C536.235 257.634 551.177 269.812 562.742 279.126L583.723 296.013C601.94 301.13 608.08 302.972 609.104 303.381C610.537 303.893 609.002 304.916 602.963 307.27L594.98 310.443C592.217 330.093 590.784 339.509 589.863 344.012C588.942 348.515 586.384 358.852 584.132 367.039C581.88 375.227 577.684 388.122 574.819 395.695C571.953 403.269 568.78 411.149 567.655 413.094C566.631 415.038 566.017 415.755 566.324 414.629C566.734 413.503 568.883 407.055 571.134 400.301C573.386 393.546 576.661 381.777 578.605 374.203C580.448 366.63 582.904 354.144 584.132 346.57C585.36 338.997 586.691 328.148 587.202 322.52C587.714 316.891 588.021 312.183 587.919 312.08C587.919 311.876 583.211 312.285 577.582 312.899L577.253 312.935C571.771 313.533 567.243 314.027 567.143 314.127C567.041 314.23 567.655 316.686 568.576 319.449C569.906 323.338 570.316 328.455 570.213 340.941C570.213 354.553 569.804 359.466 567.552 370.109C566.12 377.171 563.663 386.894 562.23 391.909C560.798 396.821 557.523 406.646 554.964 413.912C552.406 421.077 546.981 433.87 542.887 442.262C538.794 450.756 532.551 462.73 528.969 468.871C525.489 475.012 519.758 484.223 516.38 489.34C513.003 494.457 507.886 501.519 505.02 505.203C502.257 508.888 496.219 516.154 491.716 521.476C487.11 526.798 477.899 536.418 471.145 542.866C464.39 549.416 460.296 553.816 461.934 552.793C463.571 551.77 468.688 548.085 473.191 544.708C477.695 541.33 486.189 534.371 492.125 529.356C498.061 524.341 507.17 516.052 512.389 510.934C517.711 505.817 526.513 496.504 531.937 490.363C537.463 484.223 545.548 474.5 549.949 468.871C554.35 463.242 561.719 452.905 566.427 445.844C571.032 438.782 578.094 427.013 582.085 419.746C586.077 412.48 591.603 401.324 594.469 395.184C597.232 389.043 601.735 377.888 604.498 370.621C607.262 363.355 611.253 351.585 613.198 344.523C615.245 337.462 618.008 326.409 619.543 319.961C620.976 313.513 622.102 306.759 622.102 305.121C621.999 302.87 620.873 300.925 617.701 297.957C615.347 295.705 604.601 287.006 593.752 278.512L574.102 263.16C573.284 255.28 572.567 247.195 571.953 240.133C571.339 233.071 569.804 221.813 568.678 215.059C567.552 208.304 565.096 197.046 563.152 189.984C561.207 182.923 558.034 172.586 555.988 166.957C553.941 161.328 551.484 155.904 550.563 154.88C549.642 153.857 547.493 153.038 545.651 153.141C543.809 153.141 537.668 153.857 532.039 154.676C526.41 155.495 514.538 156.927 505.737 157.746C496.833 158.565 480.253 159.588 468.791 159.998L448.015 160.816C442.898 168.697 438.702 174.53 435.427 178.727C432.049 182.923 425.806 189.78 421.61 193.976C417.312 198.172 411.069 203.698 407.794 206.257C402.165 210.658 401.653 210.863 400.63 209.02C400.016 207.997 398.48 205.745 397.252 204.21L394.898 201.242C407.282 184.97 413.32 176.373 416.288 171.562C419.256 166.752 424.373 157.337 427.648 150.582C430.923 143.827 435.017 134.616 436.859 130.113L440.134 121.926C431.64 107.7 425.397 98.182 420.587 91.7344C415.879 85.2867 407.998 75.3594 403.086 69.7305C398.173 64.1016 390.088 55.607 385.073 50.8992C380.059 46.0891 371.359 38.3109 365.73 33.5008C360.102 28.5883 349.765 20.2984 342.703 14.8742C335.641 9.55234 328.273 4.02578 326.328 2.79766C324.384 1.46719 327.761 5.15156 333.902 10.9852C340.042 16.8188 348.844 26.2344 353.552 31.8633C358.157 37.4922 365.423 47.4195 369.824 53.8672C374.123 60.3148 381.491 73.2102 386.097 82.5234C390.702 91.8367 396.127 103.709 398.071 108.928L401.551 118.446C412.297 118.344 416.186 118.651 417.107 119.163C418.54 119.777 418.642 119.47 418.028 117.32C417.619 115.887 414.139 108.314 410.25 100.434C406.361 92.5531 404.109 87.2312 405.235 88.6641C406.361 90.0969 409.636 95.1117 412.502 99.9219C415.367 104.732 419.154 112.101 420.996 116.297C424.169 123.768 424.373 123.973 427.955 124.28C430.105 124.382 431.742 124.791 431.742 125.303C431.742 125.713 429.798 126.941 427.444 128.066C424.987 129.192 421.508 132.058 419.768 134.514C417.926 136.868 416.391 138.608 416.391 138.301C416.391 137.994 417.107 136.049 417.926 134.002C418.847 131.853 419.461 129.499 419.461 128.885C419.461 127.964 417.107 127.555 411.069 127.555H402.574C399.709 141.473 397.355 150.07 395.513 155.699C393.568 161.328 389.884 170.334 387.223 175.656C384.562 180.978 382.208 185.481 382.003 185.686C381.798 185.788 379.137 183.844 376.272 181.285C373.304 178.727 370.541 176.68 370.131 176.68C369.62 176.68 367.573 172.893 365.423 168.288C363.274 163.58 359.795 157.132 357.748 153.959C355.701 150.684 350.379 144.237 346.08 139.734C341.68 135.128 335.539 129.499 332.469 127.043C329.398 124.689 326.123 122.438 325.305 121.926C324.486 121.516 326.635 124.075 330.115 127.657C333.595 131.239 338.712 137.687 341.68 141.883C344.545 146.079 348.23 153.141 349.867 157.541C351.607 161.84 352.938 165.831 352.938 166.445C352.938 167.059 349.56 166.241 345.569 164.808C341.475 163.375 334.72 161.533 330.729 160.714C326.635 159.895 317.936 159.281 311.488 159.281C305.041 159.281 296.341 159.998 292.35 160.816C288.256 161.635 281.502 163.477 277.51 164.91L270.039 167.469C273.007 159.179 275.156 154.164 276.691 151.094C278.227 148.023 280.887 143.418 282.627 140.859C284.265 138.301 289.177 132.672 293.476 128.271L301.254 120.186C292.555 125.508 285.8 131.137 280.683 136.254C275.463 141.269 269.118 148.945 266.355 153.141C263.694 157.337 259.907 164.194 258.065 168.288C255.199 174.53 253.766 176.373 248.547 180.262C245.17 182.82 242.202 184.867 241.895 184.867C241.587 184.867 239.336 180.671 236.777 175.656C234.219 170.641 230.739 162.147 228.999 157.03C227.259 151.81 225.008 143.623 223.984 138.812C222.245 130.318 222.142 130.113 219.277 130.216C218.786 130.246 218.103 130.286 217.31 130.332L217.309 130.332C215.453 130.441 212.994 130.584 210.987 130.727C208.019 130.932 205.562 131.444 205.562 131.955C205.562 132.31 206.255 135.28 207.105 138.93C207.176 139.234 207.248 139.542 207.321 139.853C207.382 140.118 207.444 140.385 207.507 140.655C208.633 144.953 210.987 152.731 212.829 157.746C214.569 162.761 217.434 169.72 219.072 173.098C221.323 177.703 221.528 178.624 219.993 176.68C218.765 175.247 214.978 168.39 211.396 161.328C207.814 154.266 203.618 143.93 201.98 138.403C199.115 128.885 198.705 128.169 195.328 126.736C192.462 125.405 192.155 125.098 193.793 124.791C194.182 124.721 194.668 124.626 195.193 124.523C196.188 124.328 197.323 124.107 198.194 123.973C199.831 123.563 201.776 120.8 205.665 113.022C208.633 107.188 213.648 98.5914 216.82 93.7812C220.095 88.9711 224.189 83.4445 225.929 81.5C227.976 79.1461 227.259 80.7836 223.78 86.1055C220.812 90.6086 216.411 97.9773 214.057 102.48C211.703 106.984 208.838 113.124 207.712 116.092C206.177 119.879 205.972 121.414 206.893 121.414C207.507 121.414 211.498 120.595 215.592 119.674L222.961 117.832C228.078 102.787 233.093 91.5297 237.289 83.0352C241.587 74.643 248.649 62.157 253.152 55.4023C257.655 48.6477 264.82 38.7203 269.118 33.3984C273.416 28.0766 282.32 18.4562 288.973 12.2133C295.625 5.86797 300.742 0.648438 300.537 0.648438C300.23 0.648438 296.546 3.10469 292.452 6.07266ZM505.941 364.173C507.067 359.261 507.17 357.828 506.248 357.93C505.532 358.033 501.234 359.466 496.73 361.001L488.543 363.969C486.496 384.233 484.961 394.672 483.938 400.301C482.812 405.93 480.56 415.345 478.82 421.281C477.183 427.217 474.215 436.121 472.27 441.238C470.223 446.355 468.791 450.552 468.893 450.756C468.995 450.859 474.42 440.317 480.97 427.217C487.52 414.117 494.581 398.97 496.628 393.648C498.573 388.327 501.234 380.958 502.257 377.273C503.383 373.589 505.02 367.755 505.941 364.173ZM126.553 361.001C122.459 359.773 118.57 358.442 117.956 358.135C117.24 357.828 117.035 358.852 117.342 361.103C117.547 362.945 118.673 368.165 119.798 372.668C120.924 377.171 123.892 386.382 126.348 393.137C128.805 399.891 135.969 415.55 142.212 427.934C148.455 440.317 153.981 450.961 154.493 451.473C155.005 451.984 153.367 446.97 150.809 440.215C148.25 433.46 144.259 420.565 142.109 411.559C139.858 402.552 137.299 388.941 136.378 381.367C135.457 373.794 134.536 366.63 134.331 365.504C134.024 363.969 132.08 362.843 126.553 361.001ZM334.516 173.609C329.296 172.381 321.313 171.358 314.559 171.051C308.418 170.846 301.97 170.948 300.23 171.153C298.593 171.46 293.476 172.586 288.973 173.712C284.47 174.837 276.18 178.01 270.551 180.773C264.922 183.537 257.144 188.245 253.152 191.212C249.263 194.18 243.634 199.605 240.666 203.289C237.596 206.973 233.4 213.626 231.148 218.129C228.897 222.632 226.236 229.796 225.11 233.992C224.087 238.188 222.859 245.352 222.449 249.855C221.938 255.587 222.245 260.806 223.37 267.459C224.291 272.678 226.031 279.637 227.362 282.81C228.692 286.085 231.763 291.714 234.219 295.398C236.675 299.083 241.69 305.019 245.477 308.703C249.263 312.388 253.869 316.277 255.813 317.3C258.577 318.835 257.86 317.812 252.027 311.671C248.035 307.475 243.43 302.051 241.69 299.492C239.95 296.934 237.187 292.021 235.345 288.439C233.605 284.959 232.377 281.889 232.684 281.582C232.991 281.275 235.14 282.605 237.596 284.55C239.95 286.392 245.374 290.179 249.57 293.045C253.766 295.808 263.284 301.744 270.551 306.247C277.92 310.648 286.005 316.072 288.768 318.119C291.838 320.575 294.499 323.952 296.137 327.33C297.57 330.298 298.695 333.88 298.695 335.312C298.695 336.745 299.105 338.587 299.616 339.406C300.333 340.532 300.742 339.918 301.356 336.848C301.663 334.596 301.766 329.991 301.356 326.613C300.947 323.236 299.514 318.016 298.184 315.048C296.341 311.364 294.295 308.908 291.327 306.861C288.973 305.326 282.423 302.46 276.794 300.516C268.709 297.752 266.252 296.422 265.229 294.375C264.615 292.942 263.694 289.974 263.182 287.825L262.363 283.834C270.346 288.848 276.282 291.714 280.785 293.454C285.288 295.194 290.098 297.548 291.531 298.673C292.964 299.799 297.467 304.916 301.561 310.034C305.655 315.253 309.237 320.882 309.646 322.52L310.26 325.59C312.614 320.882 316.401 315.048 320.188 309.727C323.974 304.405 328.375 299.083 330.013 298.059C331.65 296.934 335.539 295.194 338.609 294.17C341.68 293.147 346.183 291.1 348.639 289.77C350.993 288.337 353.859 285.778 354.984 284.141L357.031 281.07C349.048 285.369 346.08 286.188 343.829 285.983C341.884 285.778 340.145 285.062 339.94 284.345C339.735 283.731 340.554 283.117 341.577 283.117C342.703 283.117 345.773 280.968 348.434 278.205C351.095 275.544 355.394 270.631 357.85 267.254C360.306 263.877 363.888 258.145 365.73 254.461C367.573 250.777 370.131 244.329 371.462 240.133C373.304 234.197 373.816 230.103 373.816 221.711C373.816 214.24 373.304 209.225 372.076 205.336L370.234 199.707C375.248 204.415 378.626 208.816 381.082 212.5C383.436 216.184 386.711 222.018 388.144 225.498C389.577 229.08 391.521 234.811 392.237 238.291C393.056 241.873 394.08 248.218 394.489 252.414C394.796 256.712 394.591 263.672 393.977 268.277C393.261 272.78 391.623 279.945 390.191 284.141C388.758 288.337 385.995 294.58 383.948 297.957C381.901 301.437 381.082 303.381 382.105 302.562C383.129 301.744 386.199 297.548 388.963 293.352C391.726 289.053 395.205 281.991 396.638 277.488C398.583 271.348 399.402 266.435 399.709 257.531C400.118 247.911 399.811 244.124 398.071 236.755C396.843 231.843 394.591 224.986 393.056 221.404C391.419 217.924 388.246 212.295 385.995 208.918C383.743 205.541 378.626 199.707 374.839 196.023C370.95 192.338 365.526 187.835 362.66 185.891C359.897 183.946 354.37 180.876 350.379 179.136C346.49 177.294 339.326 174.837 334.516 173.609ZM355.905 298.162C356.315 297.241 356.417 296.422 356.11 296.524C355.803 296.524 349.97 298.571 343.215 301.027C335.232 303.995 330.115 306.452 328.682 308.191C327.352 309.624 325.407 313.82 324.281 317.607C322.746 322.417 322.234 326.716 322.439 331.73L322.746 338.895C325.407 330.195 327.761 325.385 329.603 322.622C331.65 319.552 336.051 315.253 340.656 311.978C344.852 308.908 349.867 304.916 351.709 303.177C353.654 301.437 355.496 299.185 355.905 298.162ZM534.802 165.934C536.44 165.115 538.794 163.58 540.227 162.454C541.659 161.226 542.99 160.305 543.297 160.305C543.604 160.305 543.297 162.556 542.58 165.422C541.25 170.437 541.352 170.744 545.241 179.443C547.493 184.458 550.461 191.622 551.996 195.613C553.429 199.605 554.555 203.187 554.555 203.801C554.452 204.312 552.917 201.856 551.177 198.172C549.335 194.488 546.06 188.142 543.809 184.048C541.557 179.955 539.51 176.577 539.203 176.68C538.896 176.68 537.463 179.238 533.062 187.938L538.589 196.33C541.557 201.038 546.879 210.351 550.256 217.105C553.634 223.86 558.341 234.913 560.593 241.668C562.947 248.423 564.687 254.256 564.584 254.666C564.38 255.075 556.192 249.139 546.367 241.463C536.542 233.788 519.348 220.176 508.193 211.272C496.219 201.652 487.52 195.409 486.701 195.716C486.552 195.815 485.763 196.319 484.465 197.147L484.449 197.158C480.394 199.748 471.405 205.488 461.422 211.988C448.22 220.585 431.742 230.82 424.885 234.811C417.926 238.905 412.092 242.077 411.785 241.873C411.478 241.77 410.659 238.905 409.738 235.527C408.92 232.15 408.305 228.568 408.203 227.545C408.203 226.316 410.762 224.577 416.595 221.813C421.303 219.562 428.979 215.366 433.789 212.5C438.599 209.532 445.559 204.824 449.448 201.959C453.234 198.991 456.305 196.125 456.305 195.613C456.305 194.999 455.077 191.52 453.541 187.835C451.904 184.048 450.369 180.569 449.857 180.159C449.448 179.648 448.322 180.364 447.401 181.797C446.377 183.23 443.307 186.812 440.441 189.78C437.678 192.748 435.12 194.897 434.812 194.59C434.505 194.385 435.938 192.134 437.883 189.78C439.93 187.323 443.307 182.923 445.354 179.955C447.401 177.089 449.141 173.507 449.141 172.074C449.141 170.641 449.448 169.516 449.959 169.516C450.369 169.413 451.904 170.334 453.541 171.562C455.691 173.098 457.84 173.609 463.162 173.609C467.051 173.609 476.773 173.098 484.961 172.586C493.148 172.074 507.067 170.641 515.971 169.516C524.773 168.39 533.267 166.752 534.802 165.934ZM79.782 160.509C79.6797 160.714 80.3961 162.863 81.3172 165.422C82.8523 169.925 82.8523 170.13 79.8844 176.168C78.2469 179.545 74.6648 187.835 72.1062 194.59C69.4453 201.345 67.3984 206.973 67.6031 207.076C67.8078 207.28 69.2406 204.517 70.9805 200.935C72.319 198.091 74.8886 193.195 77.0679 189.042C77.5546 188.115 78.0218 187.224 78.4516 186.402C80.9078 181.899 83.2617 177.908 83.5687 177.396C83.9781 176.987 85.8203 179.034 87.7648 182.002C89.8117 185.379 90.8352 187.835 90.3234 188.654C89.9224 189.135 88.39 191.376 86.5635 194.048C86.0594 194.785 85.5329 195.555 85.0016 196.33C82.5453 199.809 77.3258 209.225 73.4367 217.105C69.5477 224.986 64.7375 236.244 62.793 242.18C60.8484 248.116 59.2109 253.233 59.2109 253.745C59.2109 254.154 65.0445 249.958 72.2086 244.534C79.475 239.007 94.9289 226.93 106.801 217.617C115.628 210.632 124.225 203.877 128.792 200.289C130.315 199.093 131.389 198.249 131.875 197.865L135.457 195.102C172.71 219.562 189.802 230.308 197.375 234.913L211.191 243.101C213.852 231.638 214.671 227.749 214.773 227.135C214.773 226.419 210.987 223.962 206.279 221.813C201.673 219.562 194.202 215.468 189.699 212.807C185.196 210.044 178.134 205.336 174.041 202.47C170.049 199.502 166.672 196.534 166.672 195.92C166.672 195.204 167.9 191.417 169.435 187.426C170.97 183.434 172.301 180.159 172.505 180.057C172.71 179.852 176.804 183.741 181.614 188.756C186.527 193.669 189.802 196.637 189.085 195.511C188.266 194.283 185.401 190.598 182.74 187.323C179.977 183.946 176.906 179.545 175.78 177.498C174.757 175.349 173.836 172.893 173.836 172.074C173.836 171.255 173.324 170.334 172.812 170.027C172.198 169.72 170.766 170.437 169.435 171.562C167.593 173.2 165.648 173.609 158.996 173.609C154.493 173.609 144.566 173.098 136.992 172.586C129.419 171.972 115.807 170.539 106.801 169.413C92.575 167.571 89.9141 166.957 86.332 164.501C85.1544 163.698 83.9488 162.867 82.9788 162.198C82.0941 161.589 81.4054 161.114 81.1125 160.919C80.3961 160.509 79.8844 160.305 79.782 160.509Z" fill="#1B1514"/>
<path d="M97.9992 176.475C96.0547 174.019 94.0078 171.46 93.5984 170.846V170.744C93.0867 170.027 93.2914 169.516 93.9055 169.516C94.5195 169.516 102.093 170.641 110.588 171.972C119.184 173.405 130.749 175.042 136.173 175.554C141.7 176.168 150.092 176.68 154.902 176.68C160.02 176.68 163.602 177.089 163.602 177.703C163.602 178.215 161.862 180.876 159.815 183.537C157.666 186.3 156.028 188.552 155.926 188.756C155.926 188.859 151.73 188.347 146.715 187.426C141.598 186.607 131.056 184.765 123.176 183.332C115.295 181.899 107.21 180.773 105.266 180.773C102.298 180.876 101.07 180.159 97.9992 176.475Z" fill="#1B1514"/>
</svg>
